<svg id="Layer_1" data-name="Layer 1" xmlns="http://www.w3.org/2000/svg" viewBox="0 0 645.36 132.98"><defs><style>.cls-1{fill:#2d2d2d;}.cls-2{fill:#fe8856;}.cls-3{fill:#c3c3c3;}.cls-4{fill:#b4b4b4;}.cls-5{fill:#fe8757;}.cls-6{fill:#6a6a6a;}.cls-7{fill:#b9b9b9;}.cls-8{fill:#7a7a7a;}.cls-9{fill:#636363;}.cls-10{fill:#e1bfc3;}.cls-11{fill:#f1cfd1;}.cls-12{fill:#5b5b5b;}.cls-13{fill:#fed7cc;}.cls-14{fill:#efd4d7;}.cls-15{fill:#febea1;}.cls-16{fill:#6b6b6b;}.cls-17{fill:#bdbdbd;}.cls-18{fill:#b8b8b8;}.cls-19{fill:#bababa;}.cls-20{fill:#f7dcdd;}.cls-21{fill:#bebebe;}.cls-22{fill:#f5d5d7;}.cls-23{fill:#737373;}.cls-24{fill:#b6b6b6;}.cls-25{fill:#767676;}.cls-26{fill:#fed5d4;}.cls-27{fill:#b2b2b2;}.cls-28{fill:#727272;}.cls-29{fill:#fec8c2;}.cls-30{fill:#feb8aa;}.cls-31{fill:#e9c7cb;}.cls-32{fill:#e88b8f;}.cls-33{fill:#fe6558;}.cls-34{fill:#a3a3a3;}.cls-35{fill:#fbc9ca;}.cls-36{fill:#fecabe;}.cls-37{fill:#fb8b8b;}.cls-38{fill:#6d6d6d;}.cls-39{fill:#656565;}.cls-40{fill:#c78992;}.cls-41{fill:#fe9a8d;}.cls-42{fill:#a8a8a8;}.cls-43{fill:gray;}.cls-44{fill:#e5cbcf;}.cls-45{fill:#fed5d2;}.cls-46{fill:#7d7d7d;}.cls-47{fill:#c8c8c8;}.cls-48{fill:#fed0ca;}.cls-49{fill:#797979;}.cls-50{fill:#aeaeae;}.cls-51{fill:#fed4cf;}.cls-52{fill:#838383;}.cls-53{fill:#b7b7b7;}.cls-54{fill:#707070;}.cls-55{fill:#a7a7a7;}.cls-56{fill:#cb939b;}.cls-57{fill:#6c6c6c;}.cls-58{fill:#c1c1c1;}.cls-59{fill:#747474;}.cls-60{fill:#919191;}.cls-61{fill:#b3b3b3;}.cls-62{fill:#787878;}.cls-63{fill:#e1bec2;}.cls-64{fill:#b1b1b1;}.cls-65{fill:#777;}.cls-66{fill:#828282;}.cls-67{fill:#b5b5b5;}.cls-68{fill:#adadad;}.cls-69{fill:silver;}.cls-70{fill:#d4d4d4;}.cls-71{fill:#cacaca;}.cls-72{fill:#fed4d2;}.cls-73{fill:#e6cccf;}.cls-74{fill:#fedbd7;}.cls-75{fill:#fefefe;}.cls-76{fill:#7e7e7e;}.cls-77{fill:#afafaf;}.cls-78{fill:#bfbfbf;}.cls-79{fill:#7f7f7f;}.cls-80{fill:#c5c5c5;}.cls-81{fill:#a5a5a5;}.cls-82{fill:#c6c6c6;}.cls-83{fill:#989898;}.cls-84{fill:#666;}.cls-85{fill:#fe8257;}.cls-86{fill:#b54e59;}.cls-87{fill:#ae4d59;}.cls-88{fill:#bb4e59;}.cls-89{fill:#f95a5a;}.cls-90{fill:#d05159;}.cls-91{fill:#c04f59;}.cls-92{fill:#c75059;}.cls-93{fill:#e95459;}.cls-94{fill:#d85259;}.cls-95{fill:#dd5259;}.cls-96{fill:#e45359;}.cls-97{fill:#e65459;}.cls-98{fill:#df5359;}.cls-99{fill:#d1525a;}.cls-100{fill:#fe5f59;}.cls-101{fill:#ec5559;}.cls-102{fill:#fe7b57;}.cls-103{fill:#fe6c58;}.cls-104{fill:#fe7358;}.cls-105{fill:#fd5b59;}.cls-106{fill:#ca5059;}.cls-107{fill:#c34f59;}.cls-108{fill:#f25759;}.cls-109{fill:#fe6b59;}.cls-110{fill:#fe7458;}.cls-111{fill:#fe7c57;}.cls-112{fill:#e15359;}.cls-113{fill:#d15159;}.cls-114{fill:#f35759;}.cls-115{fill:#fe6059;}.cls-116{fill:#fc5b59;}.cls-117{fill:#f75859;}.cls-118{fill:#ab4d5a;}.cls-119{fill:#f15759;}.cls-120{fill:#f95959;}.cls-121{fill:#ee5559;}</style></defs><title>Bytehub logo (1)</title><path class="cls-1" d="M195.12,128a19.35,19.35,0,0,1-3.39,3.11c-1.46,1.15-3.21,1.85-4.71,2.93a5.19,5.19,0,0,1-1.2.46,11.1,11.1,0,0,0-2.09.8A40.45,40.45,0,0,1,172.5,137q-25,0-50.06,0c-.6,0-1.41.44-1.79-.49,0-29.79,0-59.58,0-89.37,0-1.4.5-1.75,1.78-1.75,15.75,0,31.5,0,47.25,0a36.37,36.37,0,0,1,12.59,2,23.48,23.48,0,0,1,7.08,3.78A13.54,13.54,0,0,1,192.06,54c6.63,7.8,7.05,24.8-.69,32.58a11.58,11.58,0,0,1-2.67,2.37c-1,.7-.9,1.08.19,1.52a18.74,18.74,0,0,1,9,7.06,17,17,0,0,1,2.52,7c1.07,7.73.43,15.16-4,21.89C196,126.94,195.45,127.38,195.12,128Z" transform="translate(-20.39 -28.97)"/><path class="cls-1" d="M611.61,136.86c-4.15.34-8.31.07-12.47.14-1.94,0-3.88,0-5.82,0-1.14,0-1.45-.38-1.44-1.49.06-4.68,0-9.35,0-14q0-39.35,0-78.71c0-.5-.16-1,.16-1.5a24.05,24.05,0,0,1,4.76-.14c5.41,0,10.83,0,16.24,0,1.14,0,1.66.28,1.65,1.51-.07,9.46.09,18.92-.1,28.37,0,1.41.3,1.6,1.8.89a41.59,41.59,0,0,1,22.08-3.5,36.27,36.27,0,0,1,12.55,3.38,22.94,22.94,0,0,1,9.57,8.91A37.46,37.46,0,0,1,665,93.51c.28,1.79.26,3.61.7,5.38q0,3.75,0,7.49A49.34,49.34,0,0,1,662.2,122c-.66,1.5-1.49,2.89-2.28,4.31a26.66,26.66,0,0,1-7.9,7.84,30.19,30.19,0,0,1-14.67,4.29,43.49,43.49,0,0,1-11.72-.7,30.05,30.05,0,0,1-10.13-4.33c-.21-.19-.4-.4-.61-.59-.5-.45-.95-1.15-1.71-.91s-.61,1.09-.72,1.74A19.36,19.36,0,0,1,611.61,136.86Z" transform="translate(-20.39 -28.97)"/><path class="cls-1" d="M488,72.19a18.37,18.37,0,0,1,5.16,5.44c2.13,3.53,3,7.46,3.6,11.47a32.05,32.05,0,0,1,.34,6.63q0,19.56,0,39.12c0,2.19,0,2.19-2.17,2.19-6.32,0-12.64,0-19,0-.59,0-1.27.29-1.75-.33-.12-8,0-16.07,0-24.11,0-6.1.05-12.2,0-18.3,0-2.91-.7-5.64-3.35-7.42a11.27,11.27,0,0,0-2.58-1c-6.73-1.59-12.73,0-18.13,4.18a3.39,3.39,0,0,0-1.3,3q.07,21,0,42c0,2.36.19,2.06-2.15,2.07-6.39,0-12.79,0-19.18,0-1.25,0-1.64-.29-1.64-1.6q.06-46.58,0-93.16c0-1.2.34-1.54,1.53-1.53,6.51.05,13,0,19.52,0,1.82,0,1.91.09,1.91,2q0,14.56,0,29.11c0,.59-.32,1.36.32,1.75s1.14-.29,1.66-.59a41.82,41.82,0,0,1,31.88-3.44A19.19,19.19,0,0,1,488,72.19Z" transform="translate(-20.39 -28.97)"/><path class="cls-1" d="M232.78,82.09a.54.54,0,0,1,.07.25,10,10,0,0,1,.85,1.49c1.93,4.15,3.57,8.42,5.31,12.64a14.66,14.66,0,0,1,.79,1.66c.9,2.67,2.07,5.24,3.17,7.84.71,1.67,1.27,3.4,2.13,5,.89.44,1-.39,1.14-.82.67-1.5,1.3-3,1.93-4.54,1.48-3.9,3.23-7.68,4.76-11.55a3.22,3.22,0,0,0,.28-1c1.29-2.61,2.08-5.43,3.41-8a47.36,47.36,0,0,0,3.09-7.85c.91-2.13,1.88-4.23,2.66-6.39a1.88,1.88,0,0,1,2-1.4c1.93,0,3.87,0,5.8,0,4.83,0,9.67,0,14.5,0,.71,0,1.51-.19,2,.55-1.44,3.29-2.72,6.64-4.24,9.9a1.82,1.82,0,0,0-.19.81,11.48,11.48,0,0,1-1.21,3.11h0c-.86,2.18-1.8,4.33-2.62,6.52-1,2.3-1.9,4.65-3,6.9A60.37,60.37,0,0,0,273,103a12.68,12.68,0,0,1-1.21,3.06h0a4.78,4.78,0,0,1-.59,1.26c-.63,1.29-1.19,2.61-1.71,3.94-1,2.14-1.81,4.34-2.81,6.46h0a5.59,5.59,0,0,0-.45,1.63c-3.37,7.86-6.21,15.94-10.54,23.36a48.72,48.72,0,0,1-9.48,12c-6.63,5.77-14.43,7.72-23,7.1a49.73,49.73,0,0,1-9.55-1.44c-.66-.19-1.26-.52-1.91-.68-1-.23-1.22-.89-1.22-1.78q0-6.32,0-12.64c0-.8.09-1.52,1.14-1.53a28.83,28.83,0,0,0,10.59.85,13.47,13.47,0,0,0,5.76-1.89,1.19,1.19,0,0,1,.28,0,19.11,19.11,0,0,0,5.43-6.65c.33-.6.06-1.08-.17-1.6-2.65-5.93-5.45-11.79-8.11-17.71-.83-1.86-1.73-3.68-2.62-5.51l-9.21-19.88c-2.42-5.39-4.82-10.8-7.44-16.1-.73-1.36-1.22-2.83-1.94-4.18-.61-1.14-.32-1.48.94-1.47,5.42,0,10.84,0,16.26,0,1.65,0,3.31.06,5,0a1.53,1.53,0,0,1,1.8,1.16,27,27,0,0,0,1.17,2.45,15.89,15.89,0,0,1,1.19,3c.25,1.56,1.19,2.86,1.69,4.34A10.68,10.68,0,0,0,232.78,82.09Z" transform="translate(-20.39 -28.97)"/><path class="cls-1" d="M554.77,117l.35-.33a2.56,2.56,0,0,0,1.22-2.6q0-21.3,0-42.6c0-1.91,0-1.91,1.95-1.91,6.44,0,12.89,0,19.33,0,1.45,0,1.86.46,1.85,1.85q0,31.82,0,63.65c0,2,0,2-2,2H559.8c-2,0-2,0-2.11-1.94,0-.68-.18-1.35-.28-2-.16-1.17-.75-1.28-1.64-.68l-2,1.08a26.09,26.09,0,0,1-2.36,1.17c-.71.39-1.45.72-2.19,1.06-.87.57-2,.57-2.87,1.09-2.68.73-5.43,1.12-8.16,1.6-3.18,0-6.37.27-9.53-.17a23.21,23.21,0,0,1-11.56-4.46,23.69,23.69,0,0,1-4.78-5.13c-.87-1.16-1.26-2.58-2.07-3.77l0-.64a41.24,41.24,0,0,1-1.89-12.75c.1-13.33,0-26.66,0-40,0-1.9,0-1.91,1.95-1.91h18.8a3.1,3.1,0,0,1,1.67.16c.45.49.22,1.09.22,1.64q0,19.07,0,38.14a22.85,22.85,0,0,0,.42,4.76,8.29,8.29,0,0,0,3.46,5.47C542.11,123.08,548.63,121.46,554.77,117Z" transform="translate(-20.39 -28.97)"/><path class="cls-1" d="M403.73,73.85a24.13,24.13,0,0,1,7.89,8.21,32.75,32.75,0,0,1,4.25,16.66c0,3.08,0,6.16,0,9.24,0,2.54,0,2.55-2.64,2.55h-43.3c-2.31,0-2.5.29-1.67,2.45a14.48,14.48,0,0,0,4.07,5.39,16.78,16.78,0,0,0,7,3,64.31,64.31,0,0,0,31.43-2,.92.92,0,0,1,1,0c.47.74.19,1.55.2,2.33,0,3.4,0,6.81,0,10.2,0,1.46-.36,2.39-1.87,2.72a16.71,16.71,0,0,0-2,.86,25.48,25.48,0,0,1-6.35,1.55c-1.29.25-2.59.44-3.89.6a6.18,6.18,0,0,1-.88,0c-3.52.1-7,.74-10.52.7a73.29,73.29,0,0,1-12.5-1.24A34,34,0,0,1,357,129.4a2.82,2.82,0,0,0-.57-.37l-3.06-3.11a41.53,41.53,0,0,1-3.21-4.78,15.66,15.66,0,0,1-1.1-2.67c-.17-.56-.48-1.07-.64-1.64,0-.18,0-.36,0-.54a44.24,44.24,0,0,1-1.67-18.85,38.85,38.85,0,0,1,4.58-14.69l1.4-2.36c4.14-5.83,10-9.11,16.73-10.93,2.36-.33,4.66-.89,7-1.15a51.23,51.23,0,0,1,12.55.2A37.44,37.44,0,0,1,403.73,73.85Z" transform="translate(-20.39 -28.97)"/><path class="cls-1" d="M305,128.69l-.61-.72a15.23,15.23,0,0,1-1.72-4.48c-.33-1-.27-2.09-.69-3.07a16.29,16.29,0,0,1-.52-4.39c0-9.11,0-18.22,0-27.34,0-1.45-.46-1.86-1.85-1.84-3.59.07-7.18.05-10.76,0-1.55,0-1.65-.25-.93-1.69,2-4.8,3.94-9.61,5.93-14.4a1.8,1.8,0,0,1,1.95-1.3c1.36.1,2.74,0,4.1,0s1.68-.29,1.66-1.61c-.06-4.16,0-8.32.08-12.48a8.06,8.06,0,0,1,3-.91c1.42-.15,2.71-.83,4.12-1,2.75-.8,5.58-1.34,8.27-2.36,1.35-.44,2.73-.8,4.11-1.15,3.22-.79,3.43-1.52,3.39,2.69,0,5.19.11,10.38-.09,15.57-.05,1.43.95,1.32,1.82,1.33,4.17,0,8.33,0,12.5,0,2.06,0,2.22,0,2,2-.55,5-.13,10-1.09,15-.58.51-1.3.32-2,.33-3.8,0-7.6,0-11.41,0-.69,0-1.55-.25-1.82.78.07,8.28,0,16.57,0,24.85-.17,2.34,0,4.6,1.57,6.54,2.6,2.59,5.94,2.62,9.25,2.52a18.26,18.26,0,0,0,5-.85c1.52-.49,2-.11,2,1.51,0,4,0,8,0,12a1.73,1.73,0,0,1-1.36,1.84,39.94,39.94,0,0,1-12.17,2.29c-5.78.35-11.47-.28-16.75-3A18.15,18.15,0,0,1,305,128.69Z" transform="translate(-20.39 -28.97)"/><path class="cls-2" d="M58.16,29l4.73,0c5.34,1.64,8.23,5.6,8.26,11.25a10.91,10.91,0,0,0,.42,4.36,1.48,1.48,0,0,1-.21,1.87c-1.16-1-1.23-2.5-1.37-3.88-.1-1.07-.53-1.51-1.59-1.51H53.19c-1.15,0-1.51.45-1.24,1.59.22.94.87,1.74.83,2.75-.84.69-1-.16-1.33-.6a10.53,10.53,0,0,1,1.21-12.66A9.82,9.82,0,0,1,58.16,29Z" transform="translate(-20.39 -28.97)"/><path class="cls-3" d="M488,72.19c-6.35-3.52-13.22-4.43-20.33-3.88a37.58,37.58,0,0,0-17.47,5.38c-.41.26-.88.75-1.38.36s-.24-1-.24-1.46c0-9.87,0-19.74,0-29.62,0-1.5-.36-2-1.89-1.93-6.33.08-12.67.06-19,0-1.25,0-1.79.18-1.79,1.66q.07,46.31,0,92.62c0,1.35.44,1.6,1.66,1.59,6.45-.05,12.9-.07,19.34,0,1.43,0,1.67-.47,1.67-1.77,0-14.15,0-28.3,0-42.46a2.67,2.67,0,0,1,.76-2.32,21.28,21.28,0,0,1,17.8-5.09,7.33,7.33,0,0,1,1.43.53,1.06,1.06,0,0,1-1.15.06c-6-1.17-11.35.28-16.31,3.68a4.25,4.25,0,0,0-2.12,3.92c.08,13.92,0,27.85.08,41.77,0,1.55-.39,2.07-2,2-6.5-.09-13-.07-19.51,0-1.45,0-2-.31-2-1.89q.07-46.48,0-93c0-1.38.34-1.9,1.81-1.88q9.84.11,19.69,0c1.49,0,2,.49,2,2-.05,9.76,0,19.51,0,29.27,0,.52-.33,1.24.31,1.55s.91-.35,1.33-.59a39.47,39.47,0,0,1,18-5.07c5.45-.23,10.83.19,15.92,2.34C485.8,70.58,487.2,70.91,488,72.19Z" transform="translate(-20.39 -28.97)"/><path class="cls-4" d="M555.77,132.41c.25-.57.68-1,1.31-.8s.46.73.55,1.17.16.78.2,1.18c.33,2.91.33,2.92,3.21,2.92,5.42,0,10.84,0,16.25,0,1.35,0,1.85-.25,1.85-1.76q-.08-31.83,0-63.65c0-1.37-.27-1.88-1.76-1.86q-9.58.12-19.16,0c-1.37,0-1.7.4-1.69,1.74.05,14.26,0,28.52,0,42.78,0,1.16-.1,2.18-1.44,2.54a4.7,4.7,0,0,0,1-3.6c0-13.92,0-27.83-.06-41.75,0-1.7.53-2.1,2.14-2.08,6.5.08,13,.06,19.5,0,1.45,0,2,.4,2,1.94q-.06,32,0,64c0,1.53-.48,2.1-2.08,2.08-6-.08-12.09-.07-18.14,0-1.44,0-2.14-.37-2.07-1.9,0-.67-.31-1.34-.3-2C557.17,132.28,556.64,132.15,555.77,132.41Z" transform="translate(-20.39 -28.97)"/><path class="cls-5" d="M80,42.24a7.75,7.75,0,0,1,7.35-7.36,7.92,7.92,0,0,1,7.69,7.62,7.78,7.78,0,0,1-7.63,7.44A7.47,7.47,0,0,1,80,42.24Z" transform="translate(-20.39 -28.97)"/><path class="cls-6" d="M182.8,47.79c-6.21-2-12.63-2.11-19.08-2.08q-20.45.1-40.89,0c-1.68,0-2,.48-2,2.1q.07,43,0,86.06c0,.91,0,1.82-.07,2.73q-.17.18-.31,0,0-44.83,0-89.66c0-1.22.27-1.72,1.6-1.71,16.65.07,33.31.06,50,.14a28.35,28.35,0,0,1,10.83,2.14q.18.11.12.22C182.88,47.76,182.84,47.79,182.8,47.79Z" transform="translate(-20.39 -28.97)"/><path class="cls-7" d="M339.63,86.5c.33-5.22.63-10.44,1-15.66.09-1.29-.69-1.19-1.51-1.19-4.33,0-8.65,0-13,0-1.49,0-2-.46-1.93-2,.09-5.35,0-10.7,0-16.05,0-2.31,0-2.31-2.27-1.64-.38.11-.77.15-1.16.23q-.18-.12-.12-.23c0-.08.08-.12.12-.12,3.86-1.5,4.08-1.37,4.07,2.64,0,5.25,0,10.5-.11,15.75,0,1.3.88,1,1.53,1,4.17,0,8.33,0,12.5,0,2.37,0,2.37,0,2.24,2.41q-.36,6.49-.72,13c-.15,2.59-.15,2.59-2.64,2.59H327.08c-2.22,0-2.19,0-2.18,2.17q0,13.1.05,26.2c-.81,0-.44-.59-.51-.95-.11-.59.16-1.22-.18-1.79,0-7.62,0-15.24,0-22.86,0-.83-.37-1.65,0-2.48.18-.92.87-.87,1.57-.87q6.07,0,12.15,0C338.53,86.7,339.13,86.9,339.63,86.5Z" transform="translate(-20.39 -28.97)"/><path class="cls-8" d="M372.57,118.68c-2.65-1.66-4-4.26-5.06-7.06-.29-.78,0-1.36.93-1.42.45,0,.91,0,1.37,0,14.65,0,29.3,0,43.95,0,1.49,0,2-.33,1.91-1.88-.24-5.28.34-10.58-.62-15.85a32.24,32.24,0,0,0-2.53-8.27c-.34-.7-.93-1.31-.89-2.17,2.06,2.42,2.87,5.39,3.56,8.36,1.49,6.35.63,12.83.81,19.25,0,1.34-1,1.12-1.83,1.12H389.72c-6.72,0-13.45,0-20.17,0-1.42,0-1.64.36-1.18,1.66a14.66,14.66,0,0,0,4.22,5.9q.16.13.1.25T372.57,118.68Z" transform="translate(-20.39 -28.97)"/><path class="cls-9" d="M651.05,71.78c-1.71,0-3-1.09-4.63-1.53a44.11,44.11,0,0,0-18.36-1.41,40.74,40.74,0,0,0-12.31,3.65c-1.37.67-1.39-.35-1.39-1.27q0-6.76,0-13.53c0-4.74-.07-9.48,0-14.21,0-1.68-.31-2.24-2.13-2.21-6.73.11-13.47,0-20.2,0,.28-.66.87-.42,1.34-.42,6.62,0,13.23,0,19.85,0,1.25,0,1.7.39,1.7,1.67,0,9.41,0,18.82-.07,28.23,0,1.54.36,1.41,1.51.9a42.08,42.08,0,0,1,33.06-.82A3.43,3.43,0,0,1,651.05,71.78Z" transform="translate(-20.39 -28.97)"/><path class="cls-10" d="M98.19,93c4.17,12.83,1.91,24.57-5.79,35.49a37.75,37.75,0,0,1-15.72,13,3.24,3.24,0,0,1-1.77.54.4.4,0,0,1-.12-.29c0-.11,0-.16,0-.16,1.55-1.38,3.62-1.8,5.3-3a10.12,10.12,0,0,0,2.06-1.48c.45-.45,1-.77,1.48-1.19a22.3,22.3,0,0,0,4-3.66,10.47,10.47,0,0,1,1.4-1.2,3,3,0,0,0,1.28-1.46,6.09,6.09,0,0,1,.71-1.14,2.91,2.91,0,0,1,.47-.48,2.39,2.39,0,0,0,.9-1.22,9,9,0,0,1,.75-1.43,30,30,0,0,0,2.34-4.64,6.32,6.32,0,0,1,.69-1.3A14.45,14.45,0,0,0,97.89,114c.19-.57.2-1.18.34-1.77.27-.76.14-1.58.33-2.35.21-.61.2-1.27.36-1.9A36.58,36.58,0,0,0,98,96.33c-.2-1-.71-2-.35-3.15A.34.34,0,0,1,98.19,93Z" transform="translate(-20.39 -28.97)"/><path class="cls-11" d="M79.68,88.92c0,.45-.27.71-.49,1-2.49,3.9-4.06,7.8-3.09,12.77,1.21,6.18-1.26,11.44-6.3,15.27a16,16,0,0,1-25.4-9.88,22.4,22.4,0,0,1,0-5.86,2,2,0,0,1,.35-1.35.35.35,0,0,1,.49.09c.6,1.29-.29,2.57,0,3.85a7.76,7.76,0,0,1,0,.79,6,6,0,0,0,.13,2c.12.46.17.94.32,1.39a3.76,3.76,0,0,1,.11.45,5.22,5.22,0,0,0,.57,1.7,10.81,10.81,0,0,0,1.72,2.92,9.43,9.43,0,0,0,3.2,3.1A14.34,14.34,0,0,0,64.8,119.5a15.59,15.59,0,0,0,3.92-2c1.33-.34,1.74-1.73,2.76-2.42a2.18,2.18,0,0,0,1.07-1.28q.19-.53.43-1c.56-.92.82-2,1.34-2.93a4.58,4.58,0,0,1,.27-.38,5.59,5.59,0,0,0,.41-1.63,13.18,13.18,0,0,0,0-5.54,15.81,15.81,0,0,1,3.19-12.5C78.52,89.3,78.92,88.77,79.68,88.92Z" transform="translate(-20.39 -28.97)"/><path class="cls-12" d="M305,128.69c.55.15.79.61,1.08,1,3.43,4.94,8.4,7.07,14.16,7.87a36.7,36.7,0,0,0,10.19.35c3.38-.47,6.77-.76,10-1.92,1.11-.4,1.66-.85,1.63-2.16-.1-3.76,0-7.53,0-11.3,0-1.9-.14-2-1.94-1.49a21.22,21.22,0,0,1-9.8.43,6.28,6.28,0,0,1-4.35-2.42q.18-.29.42,0c3.49,2.84,7.54,2.45,11.58,2a17.7,17.7,0,0,0,3.32-.78c1.12-.36,1.44,0,1.43,1.11,0,4.33,0,8.66,0,13a1.65,1.65,0,0,1-1.21,1.81c-9.83,3.05-19.66,3.92-29.32-.49A14,14,0,0,1,305,128.69Z" transform="translate(-20.39 -28.97)"/><path class="cls-13" d="M58.16,29c-1.15.84-2.57,1.11-3.74,2a10.59,10.59,0,0,0-2.72,13.85,6.77,6.77,0,0,0,.92,1l.2.09a6.35,6.35,0,0,0,1.14,1,3.17,3.17,0,0,1,.36.26,6.76,6.76,0,0,0,1.08.8,3.85,3.85,0,0,1,.39.27,39.63,39.63,0,0,1,6.85,3.74,19.23,19.23,0,0,1,6,10.8,41.77,41.77,0,0,1,.2,12.84c-.58,1.49-.14,3.33-1.55,4.53-.35.09-.46-.21-.63-.4,0-.66.47-1.14.7-1.71.43-.64-.07-1.43.32-2.08a48.33,48.33,0,0,0,0-12.63c-.41-.64.11-1.44-.33-2.07-.81-1.67-1.42-3.41-2.39-5-1.86-3.12-4.71-4.86-7.88-6.21-4.34-1.84-7-5-7.49-9.7-.48-5.05,2.28-8.47,6.4-11A3.49,3.49,0,0,1,58.16,29Z" transform="translate(-20.39 -28.97)"/><path class="cls-14" d="M98.19,93l-.37,0c-.62.1-.9-.38-1.25-.73-2.28-2.3-5.09-3-7.37-1.84a6.34,6.34,0,0,0-3.39,7.58,37.85,37.85,0,0,1,.85,9.62,6.43,6.43,0,0,1-.09,1.07c-.22,1.38-.68,2.7-1,4.06a39,39,0,0,1-3.8,7.6,2.5,2.5,0,0,1-.25.42c-1.3,1.52-2.75,2.9-4.14,4.33-2.25,1.75-4.45,3.6-7.38,4.15a.9.9,0,0,1-.67-.36c2.14-1.26,4.46-2.19,6.45-3.75a24.84,24.84,0,0,0,9.32-15.37,29.8,29.8,0,0,0-.52-12.15,7,7,0,0,1,4.61-8.34C93.1,87.89,96.41,89.67,98.19,93Z" transform="translate(-20.39 -28.97)"/><path class="cls-15" d="M71.48,46.46c-.91-3.18-.28-6.54-1.06-9.71a10,10,0,0,0-6.42-7c-.43-.17-.86-.28-1.11-.7,3.4.18,5.35,2.43,7,5a11.13,11.13,0,0,1,1.56,6.54,13.28,13.28,0,0,0,2.75,9.24,14.67,14.67,0,0,0,7.19,4.58c2.28.73,4.71.79,6.92,1.69a15,15,0,0,1,8.5,8.17,3.46,3.46,0,0,1,.46,2.31c-1.34.09-.9-1.21-1.4-1.78a11.77,11.77,0,0,0-6.13-6.87,17.6,17.6,0,0,0-5.61-1.82,17.9,17.9,0,0,1-10.39-5.3C72.84,49.44,71.69,48.19,71.48,46.46Z" transform="translate(-20.39 -28.97)"/><path class="cls-16" d="M530.79,69.76c-6.85,0-13.69.06-20.54,0-1.47,0-1.78.45-1.78,1.84q.07,20.2,0,40.39a38.62,38.62,0,0,0,1.59,10.93,2.38,2.38,0,0,1,.13,1.33,19.93,19.93,0,0,1-2-8.68c-.21-4.15-.11-8.32-.12-12.47,0-10.6,0-21.19,0-31.79,0-1.49.37-2,1.9-1.94,6.44.08,12.88,0,19.31,0C529.76,69.4,530.39,69.13,530.79,69.76Z" transform="translate(-20.39 -28.97)"/><path class="cls-17" d="M474.23,136.58c.4.47,1,.3,1.44.3,6.5,0,13,0,19.5,0,1.26,0,1.66-.32,1.65-1.63,0-13.86,0-27.72,0-41.57,0-1.71-.16-3.42-.24-5.12a3,3,0,0,1-.05-2c.84,1.68.7,3.53.71,5.29.08,14.6.05,29.2.09,43.8,0,1.17-.34,1.62-1.55,1.61-6.84,0-13.69,0-20.53,0-.53,0-1.22.17-1.27-.72Q474.12,136.3,474.23,136.58Z" transform="translate(-20.39 -28.97)"/><path class="cls-18" d="M120.44,136.56l.31,0c.3.36.72.27,1.11.27,17,0,34.06,0,51.09-.08a32.93,32.93,0,0,0,11.22-1.94c.31-.3.72-.12,1.08-.2a.47.47,0,0,1,.34.26,37.31,37.31,0,0,1-13.34,2.37q-25.09,0-50.17,0C121.49,137.24,120.62,137.64,120.44,136.56Z" transform="translate(-20.39 -28.97)"/><path class="cls-19" d="M411.57,119.45a66.25,66.25,0,0,1-22.24,3.34,39.32,39.32,0,0,1-10.27-1.31q-.16-.09-.11-.2t.09-.11a66.9,66.9,0,0,0,14.45,1,56.06,56.06,0,0,0,16.9-2.95c1.7-.62,2.06-.25,2,1.6-.07,3.88,0,7.76-.06,11.64,0,.58.28,1.28-.43,1.7-.34-4.29,0-8.58-.16-12.87C411.75,120.65,412,120,411.57,119.45Z" transform="translate(-20.39 -28.97)"/><path class="cls-19" d="M288,85.18c-.34,1-.18,1.43,1.06,1.41,3.58-.06,7.17.1,10.75,0,1.54,0,1.94.51,1.93,2-.05,8.48,0,17,0,25.44a30.34,30.34,0,0,0,.65,6.78c.35.55.08,1.16.19,1.74a.5.5,0,0,1-.28.39,29.56,29.56,0,0,1-1-6.89c.05-9,0-18,.05-27,0-1.46-.44-1.82-1.83-1.78-3.59.08-7.18,0-10.77,0-.58,0-1.19,0-1.42-.67A1,1,0,0,1,288,85.18Z" transform="translate(-20.39 -28.97)"/><path class="cls-20" d="M38.92,91c-1,2.41-2.44,4.6-3,7.17a26.2,26.2,0,0,0-.59,11.41,27.37,27.37,0,0,0,6.32,12.8,23,23,0,0,0,6.68,5.18c.45.24.87.52,1.3.79a.91.91,0,0,1-.66.34C46,128,44.11,126,42,124.23a25.29,25.29,0,0,1-3.26-3.69c-.4-.77-.92-1.47-1.27-2.27a38.41,38.41,0,0,1-2.85-7.46,27.12,27.12,0,0,1,1.76-16.68c.13-.31.27-.63.38-1a2.18,2.18,0,0,1,.46-.95C37.8,91.85,38,90.87,38.92,91Z" transform="translate(-20.39 -28.97)"/><path class="cls-21" d="M286.54,70.42c.11-1-.63-.77-1.14-.77-7,0-14,0-21,0a1.62,1.62,0,0,0-1.78,1.2c-.85,2.29-1.83,4.52-2.76,6.78a.21.21,0,0,1-.36,0c1-2.53,1.91-5.06,2.9-7.57.3-.77,1.11-.84,1.75-.84,7.17,0,14.35-.06,21.52,0,1.65,0,1.76.41.91,2A.52.52,0,0,1,286.54,70.42Z" transform="translate(-20.39 -28.97)"/><path class="cls-22" d="M41,140a29.76,29.76,0,0,1-10.08-7.62,42.45,42.45,0,0,1-9-15.64,11.05,11.05,0,0,1-.75-3.47.36.36,0,0,1,.47,0c1.14,2.16,1.42,4.63,2.5,6.82.57,1.17,1.05,2.38,1.7,3.51a31.71,31.71,0,0,0,3,4.58,19.34,19.34,0,0,0,3.08,3.69l.83.82a33.14,33.14,0,0,0,7.1,5.7c.51.32,1.16.51,1.35,1.2A.53.53,0,0,1,41,140Z" transform="translate(-20.39 -28.97)"/><path class="cls-23" d="M474.23,136.58l-.29,0q0-19.9,0-39.8a22.08,22.08,0,0,0-.53-5.42,7,7,0,0,0-3-4.41q-.14-.13-.08-.24t.11-.11c2.85,1.37,3.69,4,3.75,6.76.17,7.41.09,14.82.08,22.23C474.31,122.57,474.26,129.57,474.23,136.58Z" transform="translate(-20.39 -28.97)"/><path class="cls-24" d="M615.44,133c7.39,4.9,15.58,5.82,24.17,4.92A39.58,39.58,0,0,0,652,134.11c-1.79,1.8-4.21,2.34-6.48,3.13-5.4,1.88-11,1.77-16.57,1.24-5-.49-9.91-1.93-13.92-5.35A.26.26,0,0,1,615.44,133Z" transform="translate(-20.39 -28.97)"/><path class="cls-9" d="M222.83,111.21c1.39,1.48,1.88,3.44,2.71,5.21,2.8,6,5.49,12,8.28,17.94a2.19,2.19,0,0,1-.17,2.36,23.84,23.84,0,0,1-3.92,5.14c-.4.37-.72.93-1.41.81a33.23,33.23,0,0,0,4.61-5.66,3,3,0,0,0,.17-3.16c-3.36-7.16-6.64-14.36-9.94-21.54C223,112,222.7,111.65,222.83,111.21Z" transform="translate(-20.39 -28.97)"/><path class="cls-16" d="M351.3,82.75c-.81,2.59-2.26,4.92-2.93,7.58A47,47,0,0,0,347,108.38c.38,2.82,1.12,5.54,1.59,8.33-.12.13-.22.11-.31,0a45.31,45.31,0,0,1-1.55-20.91,35.73,35.73,0,0,1,3.72-11.82C350.64,83.5,350.79,83,351.3,82.75Z" transform="translate(-20.39 -28.97)"/><path class="cls-25" d="M191.37,86.55c0-.87.79-1.2,1.2-1.78,3.86-5.5,4.74-11.64,4.1-18.18A28.64,28.64,0,0,0,192.06,54c2.49,2.23,3.62,5.25,4.36,8.32a29.53,29.53,0,0,1-.55,17.18C194.91,82.15,193.71,84.73,191.37,86.55Z" transform="translate(-20.39 -28.97)"/><path class="cls-26" d="M45.15,100.94h-.39c1.44-5.26,4.75-9.09,9.82-10.76,4.76-1.57,8.63-3.87,11.12-8.27.05-.09.17-.14.26-.21a.81.81,0,0,1,.28.41c.11,1.46-1.19,2.14-1.77,3.23a17.38,17.38,0,0,1-8.56,5.38,14.35,14.35,0,0,0-6.38,3.82,7.51,7.51,0,0,0-2,2.51,3.42,3.42,0,0,1-.24.4,5.79,5.79,0,0,0-1.14,2.45,2.28,2.28,0,0,1-.53,1A.38.38,0,0,1,45.15,100.94Z" transform="translate(-20.39 -28.97)"/><path class="cls-27" d="M195.12,128c1.21-2.24,2.81-4.24,3.6-6.72,2.5-7.86,2.94-15.62-.81-23.25a1.52,1.52,0,0,1-.06-.5c1.05.66,1.32,1.82,1.69,2.86,1.9,5.34,1.81,10.8.92,16.32a24.06,24.06,0,0,1-3.94,9.88C196.15,127.11,195.85,127.77,195.12,128Z" transform="translate(-20.39 -28.97)"/><path class="cls-28" d="M403.73,73.85c-2.28-.68-4.18-2.16-6.45-2.93A48.54,48.54,0,0,0,375,68.85c-2,.26-3.84,1-5.86.9q-.16-.12-.1-.22t.12-.1h0c.91-.26,1.86-.34,2.76-.67a1.17,1.17,0,0,0,.32,0c1.48-.29,3-.42,4.47-.66h0a55.65,55.65,0,0,1,10.76.09c1.44.18,2.87.37,4.3.6h0c.89.35,1.84.41,2.75.68A35.81,35.81,0,0,1,402.73,73C403.11,73.23,403.56,73.37,403.73,73.85Z" transform="translate(-20.39 -28.97)"/><path class="cls-29" d="M59.46,66.71c2.58.89,4.79,5.32,3.1,8.59-1.19,2.31-2.87,4-5.47,4.42-3.09.53-6,1.76-8.9,2.7-.07-.84.66-1,1.16-1.21,1.14-.59,2.38-1,3.55-1.5,1.38-.55,2.86-.69,4.28-1.1a6.34,6.34,0,0,0,3.4-2.12c2-2.45,2.12-5.95-.36-8a2.74,2.74,0,0,1-.61-.8A1.13,1.13,0,0,1,59.46,66.71Z" transform="translate(-20.39 -28.97)"/><path class="cls-30" d="M51,58.87c-.79,5.12-7.57,8-12.27,5.27a8.73,8.73,0,0,1-4.27-5.32,15.51,15.51,0,0,1,0-4.83h0A.35.35,0,0,1,35,54a4.65,4.65,0,0,1,.31,2.66,6.74,6.74,0,0,0,1.4,4.43A8.59,8.59,0,0,0,41.14,64a7.69,7.69,0,0,0,3.38,0,10.59,10.59,0,0,0,4.75-3.17c.6-.6.61-1.58,1.35-2.09A.34.34,0,0,1,51,58.87Z" transform="translate(-20.39 -28.97)"/><path class="cls-31" d="M48.82,128.35l.75,0a26.93,26.93,0,0,0,19.81.68l.78.06c-.15.93-1,1-1.63,1.35a26.84,26.84,0,0,1-18.16-.63C49.81,129.35,48.93,129.27,48.82,128.35Z" transform="translate(-20.39 -28.97)"/><path class="cls-32" d="M25.57,123.87c-2.15-3.24-3.17-6.91-4.12-10.61-.85-2.1-.72-4.35-1-6.54v-2.35c.3-2.35,0-4.77.82-7.07.1-.29.15-.54.51-.54.51.47.44,1.1.47,1.7-.17,1.16-.38,2.31-.47,3.48a13.83,13.83,0,0,0-.19,3.69,6.55,6.55,0,0,0,.2,2.22,43.53,43.53,0,0,0,.64,5.25c.21.95.4,1.9.69,2.82a36.15,36.15,0,0,0,1.74,4.81C25.11,121.77,26.32,122.6,25.57,123.87Z" transform="translate(-20.39 -28.97)"/><path class="cls-33" d="M79.68,88.92c-3.78,3.64-5,8.15-4.27,13.22.29,2,.72,4-.14,6a1.42,1.42,0,0,1-.47-1c0-.48,0-1,0-1.44a14.36,14.36,0,0,0-.37-3.95A9,9,0,0,1,74.2,98c.59-1.61.48-3.39,1.24-5a14.14,14.14,0,0,1,4-5.34c.8-.49,1.21-1.56,2.32-1.6a.68.68,0,0,1,.22.41,3.29,3.29,0,0,1-1.6,1.69Z" transform="translate(-20.39 -28.97)"/><path class="cls-34" d="M229.35,73.56s-.12-.06-.13-.11c-.7-3.4-2.87-4-6.07-3.84-5.8.29-11.63.11-17.45.06-1.37,0-1.93.17-1.11,1.64s1.29,2.78,1.92,4.18a.34.34,0,0,1-.13.49l-2.7-5.51c-.35-.72-.07-1.08.68-1.14.4,0,.8,0,1.2,0,6.5,0,13,.07,19.49,0,2,0,3.47.22,3.88,2.47a5.12,5.12,0,0,0,.47,1.09A.52.52,0,0,1,229.35,73.56Z" transform="translate(-20.39 -28.97)"/><path class="cls-35" d="M21.8,96.81a22.65,22.65,0,0,0-1,5.94c-.06.55.14,1.14-.29,1.63C20,97,22.71,90.52,26.27,84.31c.59-1,1.34-2,2-2.93a.28.28,0,0,1,.44,0c.36.8-.27,1.27-.64,1.8a30.09,30.09,0,0,0-3.64,6.9,28.63,28.63,0,0,0-1.81,5.12C22.51,95.82,22.42,96.45,21.8,96.81Z" transform="translate(-20.39 -28.97)"/><path class="cls-36" d="M34.85,54l-.38,0c1-4.86,8.18-9.15,13.74-4.56,1.43,1.18,2.9,2.46,3.08,4.55l-.21.15a.82.82,0,0,1-.49-.08c-.85-1.12-1.35-2.46-2.45-3.45A7.92,7.92,0,0,0,36,52.67C35.69,53.18,35.69,54,34.85,54Z" transform="translate(-20.39 -28.97)"/><path class="cls-37" d="M53,80c-1.51,1-3.42,1.16-4.8,2.39A23.92,23.92,0,0,0,38.92,91c-.69.22-.61,1.21-1.37,1.36-.23-2.14,1.15-3.43,2.49-4.75a9.06,9.06,0,0,0,2-1.85c2.56-3.13,6-4.78,9.71-6.05A1.32,1.32,0,0,1,53,80Z" transform="translate(-20.39 -28.97)"/><path class="cls-7" d="M255.72,142.69c1.86-4.08,4-8,5.67-12.21,1.52-3.81,3.12-7.58,4.68-11.37.13-.23.22-.53.59-.42-1.33,4.23-3.3,8.2-5,12.29a83.12,83.12,0,0,1-4.88,10.29C256.53,141.79,256.47,142.52,255.72,142.69Z" transform="translate(-20.39 -28.97)"/><path class="cls-38" d="M211.92,144.06c-.86-.07-1,.4-1,1.15q0,6.42,0,12.84c0,.9.34,1.26,1.18,1.56a33.58,33.58,0,0,0,7.66,1.58c1.17.14,2.33.42,3.49.63-4.17.38-8.11-.67-12-2a1,1,0,0,1-.71-.68c-.34-4.13-.08-8.26-.14-12.39a8.34,8.34,0,0,1,.16-3h0C211.06,143.58,211.64,143.2,211.92,144.06Z" transform="translate(-20.39 -28.97)"/><path class="cls-39" d="M373.57,136.9a75.79,75.79,0,0,0,14.53,1.26c3.05-.07,6.07-.83,9.15-.55q.13.12.07.21t-.11.09a78.86,78.86,0,0,1-21-.05,7.15,7.15,0,0,1-2.63-.57q-.16-.14-.1-.26T373.57,136.9Z" transform="translate(-20.39 -28.97)"/><path class="cls-40" d="M45.43,142.05l-.33,0a.34.34,0,0,1,.1-.5,2,2,0,0,1,1.42-.16,40.31,40.31,0,0,0,14.2,2.44,47,47,0,0,0,4.93-.34,2.42,2.42,0,0,1,2,.23.4.4,0,0,1-.12.53c-5.1,1.32-10.2,1-15.29,0-1-.2-2-.6-3.09-.82h0a13.49,13.49,0,0,0-2.06-.68h0C46.61,142.42,46,142.28,45.43,142.05Z" transform="translate(-20.39 -28.97)"/><path class="cls-41" d="M59.46,66.71l.34.67a1,1,0,0,1-1.12,0c-2-.94-4.08-.63-6.16-.16a40.5,40.5,0,0,0-10.64,3.91c-.15.08-.3.15-.46.22-.47.17-.92.43-1.44.16-.26-.41.08-.57.33-.77h0a33,33,0,0,1,4.1-2.07,30,30,0,0,1,6.17-2.06c2.19-.4,4.28-1.47,6.61-.87a6.83,6.83,0,0,1,1.58.56Z" transform="translate(-20.39 -28.97)"/><path class="cls-42" d="M554.77,117c-2.32,2.55-5.46,3.64-8.64,4.32a16.56,16.56,0,0,1-9.56-.51,3.06,3.06,0,0,1-1.66-1.07c2.16.57,4.21,1.42,6.54,1.47a20.81,20.81,0,0,0,12.15-3.62C554,117.36,554.23,116.92,554.77,117Z" transform="translate(-20.39 -28.97)"/><path class="cls-21" d="M517.11,133.78a29.1,29.1,0,0,0,12.26,4.32,75.34,75.34,0,0,0,8.88.12,3.21,3.21,0,0,1,2.17.06,2.17,2.17,0,0,1-1.63.32c-4.41,0-8.85.55-13.19-.67C522.53,137.06,519.38,136.31,517.11,133.78Z" transform="translate(-20.39 -28.97)"/><path class="cls-43" d="M659.92,126.27c.93-2.05,1.91-4.08,2.76-6.16,1.69-4.14,2.07-8.57,2.74-12.94a4.62,4.62,0,0,1,.27-.79A37,37,0,0,1,660.32,126C660.24,126.1,660.06,126.17,659.92,126.27Z" transform="translate(-20.39 -28.97)"/><path class="cls-44" d="M49.22,143.38l6.17,1A35.73,35.73,0,0,0,67.7,144a.76.76,0,0,1,1,0,38.63,38.63,0,0,1-7,1.19c-4.27.32-8.24-.62-12.25-1.66C49.36,143.59,49.3,143.46,49.22,143.38Z" transform="translate(-20.39 -28.97)"/><path class="cls-45" d="M80.34,88.22l1.42-1.66a7.81,7.81,0,0,1,4.47-2.63,15.07,15.07,0,0,0,8.06-5.33,1.85,1.85,0,0,1,1-.81.64.64,0,0,1,.46.18c-1.92,2.88-4.27,5.3-7.65,6.35A19,19,0,0,0,81,88.06C80.84,88.19,80.56,88.17,80.34,88.22Z" transform="translate(-20.39 -28.97)"/><path class="cls-46" d="M665.69,98.89c-1-2.51-.71-5.25-1.37-7.84A39.62,39.62,0,0,0,661,81.8c-.19-.34-.47-.66-.34-1.1A18.81,18.81,0,0,1,664,88C665,91.57,666,95.13,665.69,98.89Z" transform="translate(-20.39 -28.97)"/><path class="cls-47" d="M369.13,69.42a1.89,1.89,0,0,0,0,.33c-6.4,1.82-11.89,5-16,10.38a1.5,1.5,0,0,1-.42.27c1.05-2.59,3.26-4.15,5.31-5.81a32.52,32.52,0,0,1,10.27-5.16A2.82,2.82,0,0,1,369.13,69.42Z" transform="translate(-20.39 -28.97)"/><path class="cls-48" d="M40.31,70.79l-.36.67c-.29.83-1.1,1.1-1.74,1.53a43.51,43.51,0,0,0-8.27,7.75c-.32.37-.62.78-1.2.69l-.45,0a37.27,37.27,0,0,1,10.63-10A2.42,2.42,0,0,1,40.31,70.79Z" transform="translate(-20.39 -28.97)"/><path class="cls-49" d="M373.57,136.9l0,.38c-6.5-1.11-12.38-3.5-17.13-8.25,2.07,1.06,3.72,2.75,5.78,3.83A39.24,39.24,0,0,0,373.57,136.9Z" transform="translate(-20.39 -28.97)"/><path class="cls-50" d="M211.92,144.06c-.36-.53-.88-.35-1.37-.32.25-.58.75-.48,1.17-.35a23,23,0,0,0,16.31-.67c-1.42,1.53-3.37,1.83-5.25,2.08A27.19,27.19,0,0,1,211.92,144.06Z" transform="translate(-20.39 -28.97)"/><path class="cls-51" d="M95.79,78l-.4,0c-.34-.58,0-1.09.19-1.6a13.86,13.86,0,0,0,1.29-8.24,1.48,1.48,0,0,1,.28-1.43c.2-.84-.39-1.58-.34-2.4a12.56,12.56,0,0,1,.53,10.49A33.52,33.52,0,0,1,95.79,78Z" transform="translate(-20.39 -28.97)"/><path class="cls-52" d="M206.38,76l.13-.49c2.59,5,4.71,10.13,7.1,15.18a1.73,1.73,0,0,1,0,.66c-2.07-3.33-3.31-7.06-5.08-10.54C207.75,79.22,207.09,77.59,206.38,76Z" transform="translate(-20.39 -28.97)"/><path class="cls-53" d="M239.64,98.18,234,85c-.18-.42-.38-.82-.57-1.23a.5.5,0,0,1,.07-.73c1.78,3.17,2.91,6.63,4.35,9.94.74,1.7,1.39,3.44,2.08,5.17C239.86,98.34,239.75,98.33,239.64,98.18Z" transform="translate(-20.39 -28.97)"/><path class="cls-54" d="M411.57,119.45c.42.12.44.47.44.82q0,6.93-.09,13.86l-3.08,1.36a.75.75,0,0,1-1,0c.19-.13.36-.34.56-.37,3.13-.4,3.46-2.44,3.3-5.1C411.44,126.49,411.58,123,411.57,119.45Z" transform="translate(-20.39 -28.97)"/><path class="cls-42" d="M239.64,98.18H240l5.2,12.59a.35.35,0,0,1-.07.5A136.59,136.59,0,0,1,239.64,98.18Z" transform="translate(-20.39 -28.97)"/><path class="cls-55" d="M253.4,93.07c-1.43,4.36-3.35,8.52-5.15,12.72a.38.38,0,0,1-.1-.53c1.42-4.16,3.3-8.13,4.93-12.2A.19.19,0,0,1,253.4,93.07Z" transform="translate(-20.39 -28.97)"/><path class="cls-47" d="M391.72,68.74a95,95,0,0,0-15.06-.69,2.25,2.25,0,0,1,.75-.31c4.65,0,9.3-.27,13.9.72C391.46,68.49,391.59,68.64,391.72,68.74Z" transform="translate(-20.39 -28.97)"/><path class="cls-9" d="M286.54,70.42l0,.69-4.08,9.62a.19.19,0,0,1-.32,0c.68-2.86,2.12-5.43,3.19-8.14C285.64,71.86,285.7,70.91,286.54,70.42Z" transform="translate(-20.39 -28.97)"/><path class="cls-50" d="M210.55,143.74l0,15.42a2.44,2.44,0,0,1-.28-.76c0-4.64,0-9.28,0-13.92A.82.82,0,0,1,210.55,143.74Z" transform="translate(-20.39 -28.97)"/><path class="cls-49" d="M496.49,86.6l.05,2c-.87-1.39-.66-3-1-4.55-.54-2.26-1.84-4.19-2.41-6.4,1.87,2.22,2.57,4.92,3.1,7.68C496.3,85.75,496.14,86.22,496.49,86.6Z" transform="translate(-20.39 -28.97)"/><path class="cls-56" d="M68.73,144.08l-1,0q0-.15,0-.3a1,1,0,0,1,.84-.73c1.93-.35,3.72-1.16,5.6-1.67a1,1,0,0,1,.74.33V142C73,143.12,70.78,143.36,68.73,144.08Z" transform="translate(-20.39 -28.97)"/><path class="cls-19" d="M253.4,93.07h-.32a71.29,71.29,0,0,1,3.65-8.62.5.5,0,0,1,.07.73Z" transform="translate(-20.39 -28.97)"/><path class="cls-25" d="M615.44,133l-.4.08a6.24,6.24,0,0,1-.69-.5c-1-.94-1.42-.51-1.65.63s0,2.62-1.1,3.59c-.08-1.61.8-3.06.78-4.67,0-.7.59-.93,1.24-.63A4.66,4.66,0,0,1,615.44,133Z" transform="translate(-20.39 -28.97)"/><path class="cls-50" d="M540.42,138.28l-2.17-.06,8.27-1.69a.56.56,0,0,1,.8.05C545.16,137.72,542.74,137.79,540.42,138.28Z" transform="translate(-20.39 -28.97)"/><path class="cls-57" d="M256.8,85.18l-.07-.73,2.75-6.88.36,0A36.56,36.56,0,0,1,256.8,85.18Z" transform="translate(-20.39 -28.97)"/><path class="cls-25" d="M317.09,51.29c-2.1,1.16-4.52,1.29-6.75,2a13.37,13.37,0,0,1-1.49.33q-.28-.19,0-.39l7.21-2A.77.77,0,0,1,317.09,51.29Z" transform="translate(-20.39 -28.97)"/><path class="cls-58" d="M275.29,97.17l3-6.9q.21-.26.39,0a77.63,77.63,0,0,1-3.38,7.9A.79.79,0,0,1,275.29,97.17Z" transform="translate(-20.39 -28.97)"/><path class="cls-29" d="M58.77,66.36c-2.77-1.09-5.47,0-8.19.31C53.28,65.76,56,64.36,58.77,66.36Z" transform="translate(-20.39 -28.97)"/><path class="cls-59" d="M182.8,47.79q0-.17,0-.33a14.43,14.43,0,0,1,6.51,3.79C187.1,50.17,185.1,48.71,182.8,47.79Z" transform="translate(-20.39 -28.97)"/><path class="cls-7" d="M407.79,135.47l1,0a20.79,20.79,0,0,1-7.1,1.82l-.18-.09a.24.24,0,0,1,.13-.31A41,41,0,0,0,407.79,135.47Z" transform="translate(-20.39 -28.97)"/><path class="cls-27" d="M248.15,105.26l.1.53c-.66,1.68-1.33,3.35-2,5-.23.59-.45,1.13-1.16.46l.07-.5c.83.08.79-.65,1-1.11C246.86,108.21,247.49,106.73,248.15,105.26Z" transform="translate(-20.39 -28.97)"/><path class="cls-6" d="M266.71,117.71c.5-2.36,1.72-4.42,2.68-6.59a.34.34,0,0,1,.11.52C268.62,113.69,268.11,115.9,266.71,117.71Z" transform="translate(-20.39 -28.97)"/><path class="cls-60" d="M379,121.17a2.39,2.39,0,0,1,0,.3,13.73,13.73,0,0,1-6.49-2.79l0-.36A25.67,25.67,0,0,0,379,121.17Z" transform="translate(-20.39 -28.97)"/><path class="cls-61" d="M278.66,90.29l-.39,0a38.15,38.15,0,0,1,2.81-6.48C280.79,86.15,279.45,88.12,278.66,90.29Z" transform="translate(-20.39 -28.97)"/><path class="cls-49" d="M232.78,82.09a20.75,20.75,0,0,1-2.35-5.86q.18-.18.3,0C231.32,78.25,232.73,79.93,232.78,82.09Z" transform="translate(-20.39 -28.97)"/><path class="cls-35" d="M20.48,106.72l1,6.54h-.33A15.48,15.48,0,0,1,20.48,106.72Z" transform="translate(-20.39 -28.97)"/><path class="cls-62" d="M275.29,97.17v1l-2,4.82c-.11.14-.22.14-.33,0A23.72,23.72,0,0,1,275.29,97.17Z" transform="translate(-20.39 -28.97)"/><path class="cls-63" d="M45.17,141.62l-.06.4A15.19,15.19,0,0,1,41,140l0-.39A4.66,4.66,0,0,1,45.17,141.62Z" transform="translate(-20.39 -28.97)"/><path class="cls-54" d="M326.4,119l-.42,0a8,8,0,0,1-1.72-6.16c.63.81-.08,2,.69,2.74C325,117,325.83,117.94,326.4,119Z" transform="translate(-20.39 -28.97)"/><path class="cls-19" d="M303,123.56c0,1.64,1.36,2.8,1.44,4.4-1.49-1.35-1.59-3.3-2.18-5l.19-.15C303,122.79,302.76,123.33,303,123.56Z" transform="translate(-20.39 -28.97)"/><path class="cls-64" d="M350.32,121.06l3,4.87c-1.59-1.07-2.25-2.8-3.12-4.39A.3.3,0,0,1,350.32,121.06Z" transform="translate(-20.39 -28.97)"/><path class="cls-16" d="M186.9,133.8a34.05,34.05,0,0,1,4.83-2.72c-1.07,1.36-2.68,1.93-4.12,2.75A.51.51,0,0,1,186.9,133.8Z" transform="translate(-20.39 -28.97)"/><path class="cls-58" d="M317.09,51.29h-1a20.09,20.09,0,0,1,4.79-1.37v.35Z" transform="translate(-20.39 -28.97)"/><path class="cls-65" d="M269.5,111.64l-.11-.52a17.16,17.16,0,0,1,1.75-4,.54.54,0,0,1,.06.72Z" transform="translate(-20.39 -28.97)"/><path class="cls-66" d="M308.84,53.28v.39a18.23,18.23,0,0,1-4.13,1q-.16-.11-.09-.21t.12-.1Z" transform="translate(-20.39 -28.97)"/><path class="cls-48" d="M44.41,68.72a15,15,0,0,1-4.1,2.07A7.27,7.27,0,0,1,44.41,68.72Z" transform="translate(-20.39 -28.97)"/><path class="cls-26" d="M44.4,102.27q0,2.93,0,5.86A10.75,10.75,0,0,1,44.4,102.27Z" transform="translate(-20.39 -28.97)"/><path class="cls-67" d="M510.26,124.88a11.37,11.37,0,0,1,2.07,3.77A6.93,6.93,0,0,1,510.26,124.88Z" transform="translate(-20.39 -28.97)"/><path class="cls-68" d="M547.32,136.59l-.8-.05,2.76-1a.85.85,0,0,1,1,0A6,6,0,0,1,547.32,136.59Z" transform="translate(-20.39 -28.97)"/><path class="cls-7" d="M397.21,137.91a1.59,1.59,0,0,1,0-.3l.64,0c1.24-.08,2.41-.72,3.7-.42l.15.17A8.45,8.45,0,0,1,397.21,137.91Z" transform="translate(-20.39 -28.97)"/><path class="cls-47" d="M376.67,68.05a12.5,12.5,0,0,1-4.47.66A9.07,9.07,0,0,1,376.67,68.05Z" transform="translate(-20.39 -28.97)"/><path class="cls-36" d="M51.29,54a7,7,0,0,1,0,4.8,5.52,5.52,0,0,1,0-4.75Z" transform="translate(-20.39 -28.97)"/><path class="cls-36" d="M34.47,54q0,2.41,0,4.83A7.16,7.16,0,0,1,34.47,54Z" transform="translate(-20.39 -28.97)"/><path class="cls-30" d="M51.24,54l0,4.75-.25.1-.14-.12a5.86,5.86,0,0,1,0-4.74Z" transform="translate(-20.39 -28.97)"/><path class="cls-69" d="M272.91,103h.33c-.27,1.11-.43,2.27-1.42,3A10,10,0,0,1,272.91,103Z" transform="translate(-20.39 -28.97)"/><path class="cls-70" d="M230.74,76.27a.93.93,0,0,0-.3,0l-1.09-2.67,0-.73A7.24,7.24,0,0,1,230.74,76.27Z" transform="translate(-20.39 -28.97)"/><path class="cls-61" d="M282.16,80.75l.32,0a4.84,4.84,0,0,1-1.4,3.06C281.12,82.66,281.84,81.78,282.16,80.75Z" transform="translate(-20.39 -28.97)"/><path class="cls-21" d="M350.32,121.06l-.08.48a7.18,7.18,0,0,1-1.43-3.06l.08-.19a.24.24,0,0,1,.32.14Z" transform="translate(-20.39 -28.97)"/><path class="cls-53" d="M304.74,54.35l0,.31c-1,.12-1.95.79-3,.77A3.66,3.66,0,0,1,304.74,54.35Z" transform="translate(-20.39 -28.97)"/><path class="cls-71" d="M470.48,86.56l0,.35-3.09-1,1.15-.06C469.3,85.72,469.81,86.35,470.48,86.56Z" transform="translate(-20.39 -28.97)"/><path class="cls-65" d="M551.34,134.54a5.82,5.82,0,0,1,2.43-1,4.43,4.43,0,0,1-2.42,1.39q-.15-.11-.11-.23T551.34,134.54Z" transform="translate(-20.39 -28.97)"/><path class="cls-47" d="M371.88,68.75a4.48,4.48,0,0,1-2.76.67A4.38,4.38,0,0,1,371.88,68.75Z" transform="translate(-20.39 -28.97)"/><path class="cls-18" d="M186.9,133.8l.7,0c-.45.79-1.35.69-2,1.06l-.15-.18a.66.66,0,0,1,.47-.53Z" transform="translate(-20.39 -28.97)"/><path class="cls-72" d="M66,82.12,66,81.68l.71-2,.37.38A1.42,1.42,0,0,1,66,82.12Z" transform="translate(-20.39 -28.97)"/><path class="cls-25" d="M551.34,134.54v.34l-1.07.61h-1A5.11,5.11,0,0,1,551.34,134.54Z" transform="translate(-20.39 -28.97)"/><path class="cls-47" d="M394.47,69.42a4.44,4.44,0,0,1-2.75-.68A4.41,4.41,0,0,1,394.47,69.42Z" transform="translate(-20.39 -28.97)"/><path class="cls-73" d="M47.16,142.7a2.5,2.5,0,0,1,2.06.68A2.76,2.76,0,0,1,47.16,142.7Z" transform="translate(-20.39 -28.97)"/><path class="cls-21" d="M348.23,116.68l.31,0a1.11,1.11,0,0,0,.07.29c.14.44.66.79.34,1.35l-.14.13A1.9,1.9,0,0,1,348.23,116.68Z" transform="translate(-20.39 -28.97)"/><path class="cls-73" d="M45.43,142.05a2,2,0,0,1,1.73.65A2,2,0,0,1,45.43,142.05Z" transform="translate(-20.39 -28.97)"/><path class="cls-74" d="M67.69,75.89c-.09.7.28,1.46-.32,2.08C67.44,77.28,67.12,76.52,67.69,75.89Z" transform="translate(-20.39 -28.97)"/><path class="cls-69" d="M271.2,107.79l-.06-.72.68-1A1.8,1.8,0,0,1,271.2,107.79Z" transform="translate(-20.39 -28.97)"/><path class="cls-74" d="M67.36,61.19c.61.61.24,1.38.33,2.07C67.11,62.65,67.45,61.88,67.36,61.19Z" transform="translate(-20.39 -28.97)"/><path class="cls-6" d="M233.53,83.08l-.07.73a2.71,2.71,0,0,1-.61-1.46C233.33,82.36,233.43,82.72,233.53,83.08Z" transform="translate(-20.39 -28.97)"/><path class="cls-6" d="M266.66,118.69l-.59.42a1.64,1.64,0,0,1,.64-1.4Z" transform="translate(-20.39 -28.97)"/><path class="cls-75" d="M175.28,116.7c-1.75,2.63-4.49,3.53-7.36,3.73-7.79.53-15.61.13-23.42.23-.77,0-1.12-.33-1.12-1.14q0-10.09,0-20.18c0-.85.31-1.29,1.2-1.26,8.14.25,16.3-.58,24.42.53,2.91.4,5.47,1.58,7,4.35,1.65,3.22,1.3,6.6.86,10A13.27,13.27,0,0,1,175.28,116.7Z" transform="translate(-20.39 -28.97)"/><path class="cls-76" d="M172.5,66.35c.9.29.94,1.19,1,1.82.75,4.17,1.12,8.33-2.34,11.65a9.27,9.27,0,0,1-6.35,2.6c-6.73.12-13.47.05-20.21.1-1.18,0-1.6-.44-1.6-1.62q.06-8.82,0-17.64c0-1.22.38-1.75,1.67-1.74,6.11,0,12.22-.08,18.32.08a12.67,12.67,0,0,1,8,2.59,3.05,3.05,0,0,1,1.47,2.16,1.25,1.25,0,0,1-1.2-.52c-2.24-2.41-5.16-3-8.25-3.08-5.65-.07-11.29,0-16.94,0-1.82,0-1.9.15-1.88,2,.06,5,.08,10,0,15.06,0,1.35.42,1.83,1.74,1.82,5.87,0,11.75.08,17.62,0,7.09-.15,10.77-5.2,9.22-12.4C172.6,68.23,172,67.34,172.5,66.35Z" transform="translate(-20.39 -28.97)"/><path class="cls-77" d="M176.58,113.17A19.19,19.19,0,0,0,176,103c.87.41.87,1.32,1,2a15.49,15.49,0,0,1-.32,9A.69.69,0,0,1,176.58,113.17Z" transform="translate(-20.39 -28.97)"/><path class="cls-19" d="M176.58,113.17l.1.87a3.68,3.68,0,0,1-1.41,2.66Z" transform="translate(-20.39 -28.97)"/><path class="cls-16" d="M185.91,134.19l-.47.53-1.27.13A2.87,2.87,0,0,1,185.91,134.19Z" transform="translate(-20.39 -28.97)"/><path class="cls-75" d="M639,117l-2,2.07a7.57,7.57,0,0,1-2.38,1.26c-3.44,1.59-7,1.46-10.65,1a16.41,16.41,0,0,1-7.5-3.29h0c-.74-.56-1.57-1-1.71-2.1,0-8.26,0-16.52,0-24.79a3,3,0,0,1,1.5-2.82c5.83-3.7,12.06-4,18.49-2.11,2,.57,3.33,2.13,4.69,3.59,2.12,2.93,2.7,6.35,2.86,9.81a40,40,0,0,1-.65,11.52A17.2,17.2,0,0,1,639,117Z" transform="translate(-20.39 -28.97)"/><path class="cls-78" d="M639.32,90a11.93,11.93,0,0,0-8.52-4.48c-5-.32-10-.11-14.43,2.93a2.93,2.93,0,0,0-1.28,2.76c0,8.38,0,16.76,0,25.14-.65,0-.5-.51-.5-.86,0-8.57,0-17.14,0-25.72a1,1,0,0,1,.19-.46,13.78,13.78,0,0,1,7.44-3.83,22.29,22.29,0,0,1,12.43.43,9.92,9.92,0,0,1,4.79,3.7Q639.62,89.85,639.32,90Z" transform="translate(-20.39 -28.97)"/><path class="cls-79" d="M639.32,90l.09-.41c2.22,2.54,2.79,5.72,3,8.86.29,4.3.5,8.66-.63,12.9-.55,2-1,4.19-2.75,5.66,3.57-6.78,3.66-14,2.47-21.3A15.28,15.28,0,0,0,639.32,90Z" transform="translate(-20.39 -28.97)"/><path class="cls-54" d="M614.74,89.3q0,12.63,0,25.26c0,.6-.24,1.26.29,1.79l1.39,1.69a2.42,2.42,0,0,1-2.05-2.52q0-12.57,0-25.15C614.39,90,614.33,89.56,614.74,89.3Z" transform="translate(-20.39 -28.97)"/><path class="cls-80" d="M623.62,121.13c1.48,0,3,0,4.43,0a16.31,16.31,0,0,0,6.82-1.13q.18.11.14.24t-.1.14a10.78,10.78,0,0,1-3.07,1.05,18.5,18.5,0,0,1-7.89,0l-.31,0q-.19-.09-.14-.21C623.54,121.17,623.58,121.13,623.62,121.13Z" transform="translate(-20.39 -28.97)"/><path class="cls-54" d="M623.62,121.13q0,.16,0,.32a11.46,11.46,0,0,1-7.21-3.41A26,26,0,0,0,623.62,121.13Z" transform="translate(-20.39 -28.97)"/><path class="cls-54" d="M624,121.48a59.18,59.18,0,0,0,7.89,0A11.06,11.06,0,0,1,624,121.48Z" transform="translate(-20.39 -28.97)"/><path class="cls-81" d="M634.91,120.43l0-.38c.73-.25,1.28-.92,2.1-1A3,3,0,0,1,634.91,120.43Z" transform="translate(-20.39 -28.97)"/><path class="cls-75" d="M392.06,85.87a7.82,7.82,0,0,1,2.43,2.69A17.33,17.33,0,0,1,396,95.68c0,.89-.14,1.33-1.19,1.32-8.72,0-17.43,0-26.15,0-.62,0-1.21,0-1.07-.88.53-3.37.84-6.82,3.75-9.24a11.78,11.78,0,0,1,5.17-2.47,22.13,22.13,0,0,1,2.36-.51c2.92-.07,5.85-.41,8.72.42A8.84,8.84,0,0,1,392.06,85.87Z" transform="translate(-20.39 -28.97)"/><path class="cls-80" d="M376.7,84.53c-3.41,1-6.33,2.51-7.7,6.08a29.88,29.88,0,0,0-1.1,5.5c-.18,1,.68.72,1.18.72,2.62,0,5.24,0,7.86,0,5.75,0,11.51,0,17.26,0,1.33,0,1.64-.43,1.58-1.67a36.71,36.71,0,0,0-1.29-6.64c1.93,2.45,1.66,5.34,1.52,8.16,0,.84-1,.57-1.57.57q-10.53,0-21.06,0c-1.54,0-3.08,0-4.62,0-.95,0-1.33-.31-1.29-1.3.22-5.46,2.2-9.87,7.82-11.54A1.31,1.31,0,0,1,376.7,84.53Z" transform="translate(-20.39 -28.97)"/><path class="cls-82" d="M387.88,84.52a47.15,47.15,0,0,0-9.16-.38q-.17-.11-.12-.24t.1-.13h0a37.46,37.46,0,0,1,7.55,0l1.71.34A.24.24,0,0,1,387.88,84.52Z" transform="translate(-20.39 -28.97)"/><path class="cls-83" d="M386.26,83.79H378.7A20.32,20.32,0,0,1,386.26,83.79Z" transform="translate(-20.39 -28.97)"/><path class="cls-76" d="M387.88,84.52l.09-.39a5.07,5.07,0,0,1,4.09,1.74Z" transform="translate(-20.39 -28.97)"/><path class="cls-83" d="M378.7,83.78l0,.36-2,.38-1.42,0A7.27,7.27,0,0,1,378.7,83.78Z" transform="translate(-20.39 -28.97)"/><path class="cls-39" d="M401.59,137.15c-1.24,0-2.43.63-3.7.42a7.2,7.2,0,0,1,3.8-.65A.41.41,0,0,1,401.59,137.15Z" transform="translate(-20.39 -28.97)"/><path class="cls-16" d="M349,118.35l-.34-1.35a1.23,1.23,0,0,1,.6,1.43A.52.52,0,0,1,349,118.35Z" transform="translate(-20.39 -28.97)"/><path class="cls-54" d="M339.63,86.5c-.43.7-1.13.38-1.7.38q-5.85,0-11.71,0c-.76,0-1.47,0-2,.69-.13-1.37.9-1,1.61-1.05C330.47,86.5,335,86.5,339.63,86.5Z" transform="translate(-20.39 -28.97)"/><path class="cls-84" d="M303,123.56l-.55-.79-.1-2A6.61,6.61,0,0,1,303,123.56Z" transform="translate(-20.39 -28.97)"/><path class="cls-85" d="M71.48,46.46l2.44,4.11c-.84.21-1.3-.38-1.65-.94a2.8,2.8,0,0,0-2.77-1.29c-4,.13-8.08-.26-12.11.27a3.07,3.07,0,0,1-1.19-.07,3.92,3.92,0,0,1-.84-.35h0a9.4,9.4,0,0,0-1.38-1h0a6.36,6.36,0,0,1-1.38-1.39v0a19,19,0,0,1-1.43-4.13c-.13-.76-.06-1,.75-1q8.71,0,17.42,0c1,0,1.17.5,1.1,1.29C70.29,43.55,71,45,71.48,46.46Z" transform="translate(-20.39 -28.97)"/><path class="cls-85" d="M87.31,49.2a7.24,7.24,0,0,1-6.88-6.75c0-1,.36-1.81,1.58-1.81,3.65,0,7.3,0,10.95,0,1.46,0,1.52,1.13,1.43,2C93.94,46.73,91.67,49,87.31,49.2Z" transform="translate(-20.39 -28.97)"/><path class="cls-86" d="M45.17,141.62a25.41,25.41,0,0,0-4.17-2c-3-2-6.28-3.81-8.6-6.75-.37-.91.24-1.24.93-1.48A5.41,5.41,0,0,1,35,131.2c6.72-.07,13.44,0,20.16-.06,2,0,4,.41,6.08.29,8-.43,16-.2,24.05-.2,1,0,2.43-.43,2.66,1.31a15.25,15.25,0,0,1-4.13,3.73c-15.14-.57-30.28,0-45.49-.06A31.23,31.23,0,0,0,45,140.4c.49.41,1.36.38,1.44,1.26Z" transform="translate(-20.39 -28.97)"/><path class="cls-87" d="M45.1,141a40.28,40.28,0,0,1-8-4.84,2,2,0,0,1,1.86-.63H81.49a3.12,3.12,0,0,1,2.35.76c-.28.55-.86.7-1.34,1A23.09,23.09,0,0,1,75.07,141a22.38,22.38,0,0,0-3.74-.14c-8.35,0-16.7,0-25,0A3.4,3.4,0,0,0,45.1,141Z" transform="translate(-20.39 -28.97)"/><path class="cls-88" d="M88,132.54c-.41-1-1.27-.79-2.05-.79-6,0-12.07.12-18.1,0-4.12-.11-8.28-.2-12.36-.11-7.22.15-14.43,0-21.65.15-.78,0-1.34.22-1.42,1.1a1,1,0,0,1-.68-.69c-.09-.61-1.14-.91-.56-1.74a3.61,3.61,0,0,1,2.6-.53c4.54,0,9.09,0,13.63,0,.65,0,1.4.21,1.82-.58a1,1,0,0,1,1,.07,34.45,34.45,0,0,0,8.08,1.77,25.25,25.25,0,0,0,9.2-.94,7,7,0,0,1,1.17-.17c1.71-.55,3.2-1.6,4.95-2.07,5.26-.34,10.52-.12,15.77-.12a2.1,2.1,0,0,1,1.93.85l-.68,1c-.39.61-1,1.07-1.37,1.68Z" transform="translate(-20.39 -28.97)"/><path class="cls-89" d="M86.22,107.77a37,37,0,0,0-.86-9.62c-.88-3.74.62-6.89,4-8.27a6.64,6.64,0,0,1,8.12,2.86,1.78,1.78,0,0,0,.38.34,51.33,51.33,0,0,1,1.71,13.44c0,.55.17,1.15-.3,1.62-.73-.74-.45-1.7-.5-2.56-.06-1.07-.22-2.12-.34-3.18a17.36,17.36,0,0,0-.57-4.05A1.47,1.47,0,0,0,96.19,97c-2.74,0-5.48,0-8.21,0-1.36,0-1.71.66-1.41,1.84A22.88,22.88,0,0,1,87,104.6a11.9,11.9,0,0,1-.16,2.67C86.75,107.56,86.6,107.82,86.22,107.77Z" transform="translate(-20.39 -28.97)"/><path class="cls-90" d="M96.48,119.73l-.63,1.14c-4,.22-8.08.11-12.12.05a2.23,2.23,0,0,1-1.56-.6,5.52,5.52,0,0,1,5.06-5.17c2.51,0,5,0,7.53,0,2.72.05,3,.43,2.27,3A12.23,12.23,0,0,1,96.48,119.73Z" transform="translate(-20.39 -28.97)"/><path class="cls-91" d="M91.33,128.67a9.06,9.06,0,0,0-2.67-.35c-5.16,0-10.32,0-15.47,0,.77-1.09,2.09-1.45,3-2.32.56-.52,1.22-1,1.76-1.52a2,2,0,0,1,.81-.35c4.22-.23,8.44-.13,12.66-.05.95,0,2.2,0,2,1.61L92.7,127c-.31.47-.71.88-1,1.35Z" transform="translate(-20.39 -28.97)"/><path class="cls-92" d="M93.44,125.68c-.27-1.23-1.26-1.12-2.16-1.12h-13c0-1,.92-1.33,1.45-1.91s1.09-1.28,1.61-1.94a.33.33,0,0,1,.06-.26c.16-.22.26-.55.65-.34,3.37.72,6.78.14,10.16.36,1.2.08,2.49-.47,3.6.41A15.75,15.75,0,0,1,93.44,125.68Z" transform="translate(-20.39 -28.97)"/><path class="cls-93" d="M86.56,107.42v-2.74a.59.59,0,0,0,.07-.16c.33-3.1.33-3.11,3.48-3.11,2.17,0,4.33,0,6.5,0,.85,0,1.75,0,2.26.87a25,25,0,0,1,.36,5.84c0,.6.24,1.25-.33,1.75a2.27,2.27,0,0,1-.53-1.9c0-1-.51-1.4-1.48-1.4-2.67,0-5.34,0-8,0C87.94,106.54,87.39,107.31,86.56,107.42Z" transform="translate(-20.39 -28.97)"/><path class="cls-94" d="M82.09,120.1l-.65.34a63.22,63.22,0,0,0,3.73-7.53,1.8,1.8,0,0,1,1.67-1c3.24.18,6.48,0,9.71.11,1.67.06,1.83.3,1.65,1.9a10.88,10.88,0,0,1-1.72,5.77,9.83,9.83,0,0,1,.46-2.14c.69-1.51-.06-1.92-1.35-1.93-3.24,0-6.48,0-9.71,0a1.44,1.44,0,0,0-1.41.73C83.71,117.64,82.89,118.86,82.09,120.1Z" transform="translate(-20.39 -28.97)"/><path class="cls-95" d="M98.2,114c.17-1.17-.43-1.4-1.49-1.42-3.4-.05-6.8.27-10.19-.17-.62-.08-.8.63-1.35.54a20,20,0,0,1,1.06-4.1c2.3-.48,4.63-.11,6.94-.2,1.19,0,2.38,0,3.57,0,1.82.08,2,.24,2,2.13a2.83,2.83,0,0,1-.15,1.5C98.48,112.83,98.82,113.49,98.2,114Z" transform="translate(-20.39 -28.97)"/><path class="cls-96" d="M98.54,112.25c0-3.1,0-3.1-3.19-3.1H88.21a3.46,3.46,0,0,1-2-.34v-1l.34-.35c.34-1.12,1.06-1.43,2.23-1.39,2.71.1,5.44.12,8.15,0,1.58-.07,2.17.43,2,2a12.82,12.82,0,0,0,0,1.87C98.8,110.67,99.23,111.54,98.54,112.25Z" transform="translate(-20.39 -28.97)"/><path class="cls-86" d="M75.58,140.66a25.68,25.68,0,0,0,5-2.42c.64-.33,1.11-1,1.93-1-1.66,1.94-4.09,2.64-6.23,3.79-.44.24-.92.42-1.38.63l-.67,0C74.08,140.5,75.17,141,75.58,140.66Z" transform="translate(-20.39 -28.97)"/><path class="cls-92" d="M89.29,131.37c.1-.85.74-1.26,1.37-1.68A2.36,2.36,0,0,1,89.29,131.37Z" transform="translate(-20.39 -28.97)"/><path class="cls-92" d="M91.68,128.3a1.62,1.62,0,0,1,1-1.35A1.6,1.6,0,0,1,91.68,128.3Z" transform="translate(-20.39 -28.97)"/><path class="cls-97" d="M75.24,105.71v1.39c-.43.85.12,1.82-.32,2.67l-.3.16a3.83,3.83,0,0,0-2.82-.95c-7.75,0-15.5,0-23.25,0a4.47,4.47,0,0,0-2.48.5.63.63,0,0,1-.6,0,.31.31,0,0,1,0-.29c-.26-.74-.1-1.54-.38-2.27-.2-.37,0-.85-.28-1.2V105a1.42,1.42,0,0,1,.72-.68,5.43,5.43,0,0,1,1.85-.2q12.61,0,25.23,0C73.74,104.15,75,104,75.24,105.71Z" transform="translate(-20.39 -28.97)"/><path class="cls-98" d="M45.78,109.49c-.07-.86.41-1,1.17-1,8.79,0,17.57,0,26.36,0,1.18,0,1.3.62,1.29,1.49A6.78,6.78,0,0,1,73.23,113c-6.66-.51-13.33-.11-20-.23-1,0-2.06.08-3.08,0a1.88,1.88,0,0,0-2.33,1.61,6.19,6.19,0,0,1-1.71-3.1C46,110.65,45.42,110.16,45.78,109.49Z" transform="translate(-20.39 -28.97)"/><path class="cls-94" d="M47.82,114.34c-.58-2.11-.58-2.11,1.72-2.11H71.17c.77,0,1.64-.21,2.07.76a1.35,1.35,0,0,1-.41,1c-.29.47-.69.86-1,1.31-1,.67-1.27,2.21-2.73,2.38,0-.85-.44-1.16-1.28-1.15-5.49,0-11,0-16.48,0-1,0,.17.82-.42.9A8.18,8.18,0,0,1,47.82,114.34Z" transform="translate(-20.39 -28.97)"/><path class="cls-99" d="M50.91,117.42c-.64-1.3.15-1.43,1.15-1.43H68.46c.5,0,1.17-.17,1.38.39s-.58.77-.75,1.25C65.26,121.2,56.52,122.28,50.91,117.42Z" transform="translate(-20.39 -28.97)"/><path class="cls-100" d="M45.11,104.69l-.35.34c-.26-1.4.42-2.71.39-4.09l.28-.05a1.34,1.34,0,0,1,.45,1.05A5.06,5.06,0,0,1,45.11,104.69Z" transform="translate(-20.39 -28.97)"/><path class="cls-101" d="M74.9,109.77c.14-.89-.32-1.84.32-2.67l0,1C75.21,108.69,75.42,109.31,74.9,109.77Z" transform="translate(-20.39 -28.97)"/><path class="cls-101" d="M45.13,106.75c.61.76.21,1.63.3,2.45a1.8,1.8,0,0,1-.32-1.44A.77.77,0,0,1,45.13,106.75Z" transform="translate(-20.39 -28.97)"/><path class="cls-101" d="M45.78,109.49l.33,1.75a2.22,2.22,0,0,1-.66-1.75Z" transform="translate(-20.39 -28.97)"/><path class="cls-100" d="M45.13,106.75l0,1c-.55-.6-.31-1.34-.34-2C45.16,106,45.08,106.38,45.13,106.75Z" transform="translate(-20.39 -28.97)"/><path class="cls-98" d="M71.82,115.25a1.63,1.63,0,0,1,1-1.31A1.51,1.51,0,0,1,71.82,115.25Z" transform="translate(-20.39 -28.97)"/><path class="cls-102" d="M56.06,48.17c4.48-.56,9-.25,13.48-.36,1.39,0,2.59,0,3.13,1.62a2.06,2.06,0,0,0,1.24,1.13c3.59,3.68,8.32,4.78,13.09,5.79a5.28,5.28,0,0,1,3,1.39c-.51.48-1.06.29-1.59.08a64.32,64.32,0,0,0-6.6-1.67,1.52,1.52,0,0,0-.67-.08c-4.5.89-9.06.24-13.88.53a33.23,33.23,0,0,1,2.27,7.83c.12,2.28.08,4.56,0,6.85a16.31,16.31,0,0,1-.17,3.64.82.82,0,0,1-.92.63,52.53,52.53,0,0,0,0-11.42A19.87,19.87,0,0,0,62.22,52a13.46,13.46,0,0,0-5.55-3C56.25,48.9,55.92,48.7,56.06,48.17Z" transform="translate(-20.39 -28.97)"/><path class="cls-103" d="M68.48,75.56l.59-.33c.41,1.26-.39,2.39-.38,3.61-.73,1.54-1.41,3.09-2.23,4.59a4.19,4.19,0,0,1-1.72,1.83.51.51,0,0,1-.48-.1c.28-1.19,1.66-1.74,1.76-3a3.86,3.86,0,0,0,1-2.06C68.16,78.77,67.73,77,68.48,75.56Z" transform="translate(-20.39 -28.97)"/><path class="cls-2" d="M56.06,48.17c.91,1,2.34,1,3.43,1.65A7.29,7.29,0,0,1,62.22,52c-2-1.05-3.91-2.47-6.19-3.07-.27-.07-.45-.47-.68-.72Z" transform="translate(-20.39 -28.97)"/><path class="cls-2" d="M52.61,45.79A3,3,0,0,1,54,47.18,1.71,1.71,0,0,1,52.61,45.79Z" transform="translate(-20.39 -28.97)"/><path class="cls-2" d="M54,47.16a1.49,1.49,0,0,1,1.38,1A1.83,1.83,0,0,1,54,47.16Z" transform="translate(-20.39 -28.97)"/><path class="cls-92" d="M78,124.9a28.44,28.44,0,0,1-4.79,3.42c-1.57.38-2.81,1.64-4.51,1.69l1.48-1c2.75-.76,4.86-2.61,7.17-4.13A.41.41,0,0,1,78,124.9Z" transform="translate(-20.39 -28.97)"/><path class="cls-90" d="M78,124.9h-.65a44.14,44.14,0,0,1,4.05-4.21c-.48,1.72-2.21,2.43-3.06,3.85Z" transform="translate(-20.39 -28.97)"/><path class="cls-103" d="M69.08,71.47V64.27a3.1,3.1,0,0,1,2.26-.55q11.1,0,22.2,0c1,0,2-.06,2.62.89l1,2.07A16.39,16.39,0,0,1,95.39,78c-.71.8-1.37,1.66-2.14,2.39a11.75,11.75,0,0,1-5,3.32,26,26,0,0,0-6.46,2.9V86.2c.59-1.48,2-2,3.26-2.51,2.15-.87,4.43-1.41,6.27-3a16,16,0,0,0,2.13-1.94,14,14,0,0,0,2.37-4.9c.44-1.67.3-1.87-1.48-1.89-3.08,0-6.16,0-9.25,0-4.51,0-9,0-13.53,0A3.41,3.41,0,0,1,69.08,71.47Z" transform="translate(-20.39 -28.97)"/><path class="cls-104" d="M96.16,64.61A4.14,4.14,0,0,0,94,64.27H69.08c-.72-2.71-1.14-5.51-2.65-8.22H75A15.05,15.05,0,0,0,78.71,56c3.58-1,6.72.6,10,1.49a3.59,3.59,0,0,0,1.32.27A10.66,10.66,0,0,1,96.16,64.61Z" transform="translate(-20.39 -28.97)"/><path class="cls-105" d="M40.3,87.89a8.69,8.69,0,0,0-2.76,4.44l-.34.71c-.23.35-.48.63-.9.23A2.56,2.56,0,0,0,34,92.52H26a4.44,4.44,0,0,1-2-.27c-.73-.88.08-1.55.33-2.3.65-1.7,1.13-3.49,2.62-4.73,4.19.2,8.37.08,12.56.12a8.48,8.48,0,0,1,.85,0c.45,0,1,.06,1.21.49s-.26.79-.54,1.11A7.7,7.7,0,0,0,40.3,87.89Z" transform="translate(-20.39 -28.97)"/><path class="cls-106" d="M50.23,129.35h-1a7.21,7.21,0,0,1-3.5-1.49c-1.57-1.22-3.29-2.24-4.8-3.55a3,3,0,0,0-2.06-.66c-3.41,0-6.82,0-10.23,0-1.65,0-1.76.33-1,1.84.44.91,1.57,1.59,1,2.86a16.39,16.39,0,0,1-3.07-4.5c.12-1.17-.92-2-1-3.05-.49-1.27.1-1.87,1.31-1.89,3.86-.05,7.72-.21,11.58.08.81.15,1,1,1.58,1.41a34.89,34.89,0,0,0,6.54,6.15,11.5,11.5,0,0,0,3.28,1.77Z" transform="translate(-20.39 -28.97)"/><path class="cls-37" d="M36.55,93.41l.66-.37c-.69,2.33-1.82,4.5-2.26,6.93a25.44,25.44,0,0,0,1.86,15.94,7.58,7.58,0,0,1,1.07,2.48.51.51,0,0,1-.47.16,3.8,3.8,0,0,1-1.66-2.49c-.35-1.2-.88-2.34-1.23-3.54-.28-1.47-.85-2.88-1-4.38-.17-1.22.08-2.44,0-3.67a3,3,0,0,1,0-1.22c.36-1.83.16-3.75.93-5.51C35.15,96.29,35.38,94.62,36.55,93.41Z" transform="translate(-20.39 -28.97)"/><path class="cls-94" d="M37.57,118.44l.32-.06a6.16,6.16,0,0,1,1.11,2,1.87,1.87,0,0,1-1.1-1C37.58,119.17,37.18,118.94,37.57,118.44Z" transform="translate(-20.39 -28.97)"/><path class="cls-107" d="M28.64,128.37c-.32-1.42-1.47-2.38-2-3.69-.46-1.09-.14-1.49.94-1.49H39.66a1.43,1.43,0,0,1,1.11.32c1.59,1.63,3.65,2.64,5.36,4.13-.77.87-1.83.82-2.84.83-3.74,0-7.48,0-11.22,0-1.85,0-1.85,0-1.09,1.75a1.49,1.49,0,0,1,.09.5c.2.48.77.8.66,1.43A11.61,11.61,0,0,1,28.64,128.37Z" transform="translate(-20.39 -28.97)"/><path class="cls-108" d="M45.46,101.94l0-1.06c-.1-.42.17-.7.38-1a22.2,22.2,0,0,1,1.33-2.76h0a1.93,1.93,0,0,1,1.07-.74,73.61,73.61,0,0,1,7.69-.13c5.08,0,10.15,0,15.23,0a6.57,6.57,0,0,1,2.53.28c.54.22,1.29.38.93,1.29a11.45,11.45,0,0,0,.32,3.76,3.61,3.61,0,0,1-1.84.22c-8.06,0-16.13,0-24.19,0C47.71,101.79,46.59,102.06,45.46,101.94Z" transform="translate(-20.39 -28.97)"/><path class="cls-33" d="M64.25,85.16h.37c.16,1-.79,1.37-1.25,2a18.56,18.56,0,0,1-7.46,4,19.32,19.32,0,0,0-3.28,1.45c-1.12.45-1.83,1.55-3,1.93a.69.69,0,0,1-.43-.19A13.13,13.13,0,0,1,56,90.25,19.68,19.68,0,0,0,64.25,85.16Z" transform="translate(-20.39 -28.97)"/><path class="cls-100" d="M49.19,94.41l.36,0c0,1.23-1.09,1.63-1.71,2.39l-.72.33A4.83,4.83,0,0,1,49.19,94.41Z" transform="translate(-20.39 -28.97)"/><path class="cls-100" d="M47.13,97.12a6.09,6.09,0,0,1-1.33,2.76A3.91,3.91,0,0,1,47.13,97.12Z" transform="translate(-20.39 -28.97)"/><path class="cls-33" d="M53,80H51.61c.5-1.33,1.87-1,2.73-1.55-6.06,0-12.2,0-18.35,0a4.49,4.49,0,0,1-2.65-.42c-.73-.7,0-1.1.36-1.51a22,22,0,0,1,6.77-4.91,3.94,3.94,0,0,0,.86-.53h0A3.44,3.44,0,0,1,43,70.82c5.41.22,10.82,0,16.22.1,3.07,0,3.61.79,2.62,3.74a16.48,16.48,0,0,1-1,2A4.68,4.68,0,0,1,57.56,79C56.05,79.39,54.51,79.68,53,80Z" transform="translate(-20.39 -28.97)"/><path class="cls-109" d="M60.88,76.66c.17-1.29,1-2.37,1-3.75,0-1.12-.36-1.48-1.48-1.47-5,0-10,0-15.05,0-1.38,0-2.7-.3-4.06-.37,4.24-2.73,9-4,13.89-4.79,1.66-.27,3.1.51,4.59,1,3.07,3.4,3.5,5.67,1.66,8.69A3.74,3.74,0,0,1,60.88,76.66Z" transform="translate(-20.39 -28.97)"/><path class="cls-110" d="M41,64.29a6.82,6.82,0,0,1-4.43-2.73,9.5,9.5,0,0,1-1.57-5c0-1.32.57-1.71,1.72-1.74,1.65,0,3.31,0,5,0H48c2.78,0,3.56,1.08,2.61,3.7a10.88,10.88,0,0,1-1,2.35c-1,2-2.9,2.68-4.79,3.4A10.06,10.06,0,0,1,41,64.29Z" transform="translate(-20.39 -28.97)"/><path class="cls-111" d="M49.57,60.88c.18-1.51,1.26-2.78,1-4.42-.11-.77-.33-1.11-1.13-1.1q-6.56,0-13.11,0c-.87,0-1.13.32-1.23,1.18-.2,1.89,1,3.33,1.39,5C34.93,60,34.7,58,34.79,55.89c0-.63,0-1.25.06-1.88,1.5-3.74,4.18-5.9,8.28-5.82,3.89.08,6.36,2.3,7.75,5.82q0,2.37,0,4.74C50.22,59.33,50.43,60.43,49.57,60.88Z" transform="translate(-20.39 -28.97)"/><path class="cls-111" d="M41,64.29h3.82A4.81,4.81,0,0,1,41,64.29Z" transform="translate(-20.39 -28.97)"/><path class="cls-112" d="M33.8,107.77a32.1,32.1,0,0,1,1,4.79c-3.56-.95-7.19-.35-10.79-.51-1,0-1.35.69-1.9,1.23a14.49,14.49,0,0,1-.68-5.49c-.44-1,.14-1.44,1-1.49,3.34-.19,6.69-.16,10,0C33.42,106.32,33.64,107,33.8,107.77Z" transform="translate(-20.39 -28.97)"/><path class="cls-94" d="M22.14,113.28c-.15-1.26.23-1.83,1.67-1.78,3,.11,5.92.08,8.88,0a2.32,2.32,0,0,1,2.14,1L36.19,116a113.89,113.89,0,0,1-13.37,0A6.37,6.37,0,0,1,22.14,113.28Z" transform="translate(-20.39 -28.97)"/><path class="cls-113" d="M22.82,116c.49-.58,1.16-.35,1.76-.36,3.47,0,6.93,0,10.4-.13.55,0,.81.33,1.22.46a5.73,5.73,0,0,0,1.38,2.45l.33,1c-4,0-7.92,0-11.88,0-1.07,0-1.63.27-1.48,1.42A15.45,15.45,0,0,1,22.82,116Z" transform="translate(-20.39 -28.97)"/><path class="cls-114" d="M34.82,97.84a15.26,15.26,0,0,0-.69,4.07c-.05.48.12,1-.33,1.41a1.24,1.24,0,0,1-.41-.73c-.49-2.19-.49-2.19-2.65-2.2-2,0-4,.08-6,0a2.74,2.74,0,0,0-3,1.58h-.29a11.92,11.92,0,0,1,.37-3.43c.42-.87-.3-2.15,1-2.72a75.86,75.86,0,0,1,10.87-.14C35.16,95.7,35.2,96.71,34.82,97.84Z" transform="translate(-20.39 -28.97)"/><path class="cls-93" d="M33.8,107.77a1.82,1.82,0,0,0-1.86-1.06c-3,.08-6,0-9,0-.75,0-1.56-.11-1.48,1-.54-.64-.24-1.39-.29-2.1.43-.94-.29-2.06.47-2.94,1.72-.59,3.49-.23,5.24-.3,1.36-.06,2.72,0,4.09,0,2.4,0,2.4,0,2.86,2.25C34.11,105.72,33.76,106.74,33.8,107.77Z" transform="translate(-20.39 -28.97)"/><path class="cls-115" d="M22.5,96.13c-.61.69,0,1.71-.67,2.39l0-1.71c.62-2.35,1.05-4.76,2.36-6.87q.21-.26.39,0L23.86,92A7,7,0,0,1,22.5,96.13Z" transform="translate(-20.39 -28.97)"/><path class="cls-114" d="M21.47,103c-.14.9.3,1.87-.3,2.72.09-1.25-.35-2.54.29-3.75h0A.73.73,0,0,1,21.47,103Z" transform="translate(-20.39 -28.97)"/><path class="cls-100" d="M63.25,86.88l1.37-1.71a16.26,16.26,0,0,0,3.06-5.27,1.43,1.43,0,0,1,.71-.9,3.12,3.12,0,0,1,2.26-.55c6.82,0,13.63,0,20.45,0,.83,0,1.87-.29,2.29.88a12.78,12.78,0,0,1-6.14,4,15,15,0,0,0-5.51,2.85l-2.05,1.71c-4.54-.33-9.09-.05-13.64-.16C65.05,87.72,64,87.88,63.25,86.88Z" transform="translate(-20.39 -28.97)"/><path class="cls-116" d="M63.25,86.88a12.82,12.82,0,0,0,4.38.34c3.52,0,7,0,10.57,0,.57,0,1.32-.27,1.49.67A14.81,14.81,0,0,0,75.92,93a3.83,3.83,0,0,1-2.27.55c-6.24,0-12.47,0-18.71,0-1,0-2.25.26-2.65-1.2,2.21-1.39,4.81-1.87,7.15-3C60.85,88.71,61.91,87.6,63.25,86.88Z" transform="translate(-20.39 -28.97)"/><path class="cls-101" d="M45.46,101.94a2,2,0,0,1,1.81-.69q13,0,26,0a3.11,3.11,0,0,1,1.65.34,13.47,13.47,0,0,1,.36,4.11c-.38-1-1.14-1-2-1q-14,0-28.08,0C44.93,103.74,45.42,102.87,45.46,101.94Z" transform="translate(-20.39 -28.97)"/><path class="cls-117" d="M52.3,92.37c.63.75,1.5.68,2.35.68H75.92c-.9,1.47-.44,3.33-1.37,4.8-.56-1.14-1.62-1-2.62-1H47.84c.1-1.13,1.31-1.47,1.71-2.39Z" transform="translate(-20.39 -28.97)"/><path class="cls-33" d="M24.55,90l-.39,0A24.72,24.72,0,0,1,28,82.58c.26-.37.47-.77.71-1.15l.89-.74a.33.33,0,0,1,.44,0c-.51,2.07-2,3.45-3.45,4.83A31.42,31.42,0,0,0,24.55,90Z" transform="translate(-20.39 -28.97)"/><path class="cls-115" d="M26.61,85.51,30,80.72a5.6,5.6,0,0,1,3.08-3.08,3.8,3.8,0,0,0,2.15.34q9.54,0,19.08,0c.59,0,1.25-.22,1.95.52-1.56.73-3.33.59-4.68,1.53-2.59,1.16-5.24,2.21-7.43,4.08-1.37,1.17-2.36,2.75-3.87,3.78,0-.84.92-1.1,1.13-1.94C36.47,85.55,31.51,86.3,26.61,85.51Z" transform="translate(-20.39 -28.97)"/><path class="cls-118" d="M75.58,140.66c-.34.49-1.17.3-1.36,1-2.05,1.08-4.35,1.39-6.52,2.1a55.13,55.13,0,0,1-6.57.6,39,39,0,0,1-11.49-1.56,11.24,11.24,0,0,1-3.18-1.13L45.1,141c.33-.72,1-.68,1.61-.68q13.43,0,26.87,0A12.39,12.39,0,0,1,75.58,140.66Z" transform="translate(-20.39 -28.97)"/><path class="cls-109" d="M33.11,77.63A16.45,16.45,0,0,0,30,80.72l-.39,0a32.69,32.69,0,0,1,7.45-7.39C38,72.61,39,72.07,40,71.46l1.38-.34C39.72,72.6,37.62,73.36,36,74.8A19.31,19.31,0,0,0,33.11,77.63Z" transform="translate(-20.39 -28.97)"/><path class="cls-75" d="M172.5,66.35a22.73,22.73,0,0,1,1.1,5.14c.19,6.43-2.87,10.19-9.27,10.5s-13.11.12-19.67.15c-.91,0-1.1-.38-1.09-1.26,0-5.76,0-11.51,0-17.27,0-.84.1-1.49,1.15-1.47,6.89.18,13.79-.34,20.68.31a10.23,10.23,0,0,1,7.09,3.9Z" transform="translate(-20.39 -28.97)"/><path class="cls-88" d="M31.06,130.72a8.27,8.27,0,0,1-1.91-2.65c5.77-.38,11.4.35,17-.43l3.09,1.71.74.59a3,3,0,0,1-2.13.43H33.2A3.79,3.79,0,0,0,31.06,130.72Z" transform="translate(-20.39 -28.97)"/><path class="cls-119" d="M98.87,102.29c-1.13-.61-2.35-.3-3.53-.33-2.17,0-4.34.06-6.5,0-1.39-.06-2.24.19-2,1.82a.92.92,0,0,1-.31.93,22.36,22.36,0,0,0-.64-6.22c-.37-1.31,0-2.1,1.67-2,2.95.13,5.9.07,8.85,0,1.13,0,1.71.12,1.82,1.5S99,100.79,98.87,102.29Z" transform="translate(-20.39 -28.97)"/><path class="cls-33" d="M93.4,79.34c-.56-.59-1.29-.33-1.94-.33q-11.53,0-23.06,0a7.8,7.8,0,0,1,.68-3.77q0-1.88,0-3.76h26c1.9,0,2,.09,1.38,2C95.8,75.58,95.26,77.8,93.4,79.34Z" transform="translate(-20.39 -28.97)"/><path class="cls-120" d="M22.5,96.13A14.14,14.14,0,0,1,23.86,92c3.69,0,7.39,0,11.08,0,.9,0,1.95-.09,1.6,1.38l-1.72,4.43c.19-1.29-.27-1.78-1.66-1.74C29.61,96.19,26.06,96.13,22.5,96.13Z" transform="translate(-20.39 -28.97)"/><path class="cls-121" d="M21.47,103q0-.51,0-1c.15-2,1.43-2.19,3.11-2.1a62,62,0,0,0,7.18,0c1.67-.1,2.29.47,2,2.1a9,9,0,0,0,0,1.37q0,.68,0,1.36C33.56,103,32.45,102.91,31,103,27.86,103,24.66,103,21.47,103Z" transform="translate(-20.39 -28.97)"/></svg>